<?xml version="1.0" encoding="UTF-8"?>
<svg version="1.1" viewBox="0 0 816 1456" width="1280" height="1280" xmlns="http://www.w3.org/2000/svg">
<path transform="translate(479,465)" d="m0 0h37l22 3 25 7 20 8 19 9 21 13 21 16 13 12 13 13 9 11 11 15 11 18 12 23 10 23 6 20 4 23 1 11v27l-3 21-5 15-6 10-13 13-14 9-17 8-14 4-10 2h-5l-4 18-2 12v11l4 11 3 20-2 18-5 15-4 8 2 5 7 9 6 10 10 19 9 24 7 24 6 39 8-8 13-8 12-4 15-1 14 2 2 1v3l-4 1-5 5-7 8-7 11-7 15-5 17v3l11 4 8 6 8 7 8 11 8 14 6 15 5 22 1 8v23l-3 15-6 16-6 11-7 9-3 5 10 1 31 7 24 8 8 3v35l-15 6-16 5-9 2 3 5 1 9-1 3 6 1 5 4 3 7v7l6 2 3 3-1 4-5 4-10 3-7 1h-25l-10-2-9-4-1-4 2-3 1-12 4-6 5-4h3l-1-3v-10l-16 4-33 5-35 4-42 4-57 4-80 3-46 1h-37l-83-2-72-4-52-4-49-6-39-6-26-5-27-7-21-8-11-7-5-6-1-2v-8l1-3h2l2-4 11-7 11-5 21-7 26-6h3v-9l3-12 7-11 7-6 8-4 17-3 5-10 7-9 10-7-6-18-3-18v-22l3-19 7-21 7-13 8-11 9-10 13-10 5-3-24-7-21-9-16-9-13-9-8-6-1-2-3-1v5h-2l-2-5h-2l-8-14-7-19-8-22-2 1-5-13-2-10v-14l3-16 5-14 8-14 8-11 11-12h2l-2-7v-15l3-9-2-9v-19l8-24-1-9v-14l3-12 7-11 10-8 11-5 5-1h9v-21l1-2-10-1-10-3-8-5-16-6-9-7-7-7-8-14-5-15-2-9v-29l3-16 5-15 8-17 8-12 8-10 12-12 13-9 14-7 13-4 7-1h15l16 4 18 10 11 7 8 8 6 11 4 11 1 9 30-8 32-9h16l10 5 12 13 7 6 2 1h45l10-14-1-6v-10l2-6 3-15 7-8 14-8 12-4zm-261 187-14 10v39l4-4 7-9 12-10 5-4-1-7-7-8-4-7zm-63 53-4 2v2l6-1v-3zm-19 7-6 7-2 5 1 3 6-5 5-6-2-4zm9 36-2 2 1 1h5l-1-3zm-26 70v10l4 8 2-1v-11l-5-6zm-3 23-9 10-10 14-7 15-2 7v26l2 13 2 2 3-19 1-19 3-12 5-10 7-9 4-5 9-7-2-4zm-33 90 1 6h1v-5zm16 4v10l2 16 2 2v-16l-3-12zm621 97m-449 140-7 3-5 5-2 5 1 3 5-5 11-9v-2zm-147 42-10 6-5 5-3 5 3 1 5-4 4-5 9-7zm26 4-4 4-1-3-4 1-4 7 1 1 17-1-1-6h-2v-3zm-28 6-1 2 3-1zm12 4v2l3-1zm-20 2-2 6-6 2-2 5v5l7-5 6-2 7-1 2-4-8-1-1-5zm19 0m-28 2-3 5-2 10v7l2-2 4-20z" fill="#3E2A2A"/>
<path transform="translate(276,31)" d="m0 0h21l28 2 27 4 26 6 33 11 24 11 18 10 12 8 11 8 13 11 8 7 7 8 9 10 11 15 9 14 7 16 6 18 4 19 1 10v25l-3 20-4 15-7 19-10 19-11 16-11 13-17 17-14 11-11 8-17 10-16 8-18 8-8 3 1 11v31l-3 16-5 13-6 11-5 5-1-1-3-18-8-17-8-11-8-9-10-6-10-4-6-1h-11l-13 1h-39l-31-3-27-5-23-6-25-9-18-8-19-10-21-14-16-13-20-20-10-13-12-19-10-21-6-19-3-14-2-19v-13l2-19 5-21 6-17 8-16 10-16 11-14 12-13 8-8 11-9 13-10 11-7 15-9 23-11 21-8 23-7 24-5 20-3z" fill="#F5F8F8"/>
<path transform="translate(276,986)" d="m0 0 8 1 12 10 14 10 18 10 24 9 22 6 26 4 14 1 8 16 8 7v2l5 2 7 2h13l13-4 23-11 21-11 24-14 33-17 25-10 21-6 12-2h17l7 3 6 7 9 20 10 26 5 15 3 29 2 32 1 26v32l-8 16-7 9-7 7-11 7-9 4-7 2-1 1-8 1-5 1-7 2-13 7 5-2 18-5 8-1h32l16 4 14 5 15 9 9 8 6 10 2 7v16l-4 11-8 8-8 4 2-4 5-7 4-14v-10l-2-8-6-12-9-7 8 10 4 11v19l-3 10-6 8-9 4h-17l-16-3 5-10 3-11v-16l-4-13-5-9-5-6 2 4 5 11 3 15v21l-3 8-5 6-8 4h-23l-40-3 6-8 5-10v-11l-5-12-9-10-4-2 5 5 6 9 3 11v10l-4 10-7 6-11 4h-12l-12-5-7-7-7-14-8-11-5-10-3-8v-15l5-15 8-15 3-6v-11l-3-10-5-11-6-14-7-19-2-9 1-4 6 8h2l-6-8-4-6v-17l4-16 4-9 7-11 2-3-8 7-6 9-5 11-3 11-2 2-6-16-2-10 1 10 3 11 4 10 1 1 2 22v12l-4 24-5 19-6 16-8 16-9 14-9 10-3 3h-4l-5-12-6-7-8-4h-7l-9 3-9 6-4 5-19 1-36 1h-38l6-7 3-7v-8l-4-7-7-6-6-4-2-12-4-8-8-7-9-1-6-5-5-2h-11l-9 6-4 6-2 5-1 8-4-4-9-16-5-11-5-14-6-20-4-25-1-9v-12l6-4 5-5 6-10 1-3 4 2 9 10 11 7 16 8 3 1-12-7-13-10-8-9-6-11-2-12v-13l7-10 6-8 14-14 9-6z" fill="#F9C072"/>
<path transform="translate(364,548)" d="m0 0h41l19 2 27 6 36 12 21 9 21 11 15 10 5 5 2 4-5-2-12-8-16-10-6-3 8 12 10 13 10 15 8 15 11 27 3 9v13l-1 24v35l5 16 7 14 10 14 9 10 15 15 2 5v12l-3 15-5 13-7 12-4 5h-2l-1 4-4 4h-2v2l-10 8-8 5h-4v2l-7 4 2 1h10l19-2 16-5 16-8 14-10 9-8h1v8l-3 13-8 15-8 10-3 4h-2l-1 3-8 7-12 9-16 8-14 6-23 8-23 6-26 4-11 1h-40l-24-3-22-5-16-6-14-8-8-7-9-13-5-15-1-14 1-5 8 6 9 7 14 7 11 3h18l13-5 10-8 9-11 5-10 6-10 4-11 2-13v-24l-4-18-8-22-9-17 2-14v-10l1-8 3 3 10 13 11 11 9 7-4-5-6-7 1-2 12 3 16 1 17-2-20-4-12-5-12-7-10-8-7-7-10-14-7-15-2-4 1-4 11 10 14 8 8 4 13 4 7 4h7l2-4v-10l3 4 2 6 5 5-1-3 6 3-6-11-10-19-12-23-9-12 3-1 12 5 11 8 9 8-1-4-6-11-4-10-7-9-8-6-7-3-10-2h-19l-12 1-11-1 13 4 13 2 21 1-4 2-21 3h-14l-9-2-9-5-6-7-2-6v-11l3-9 4-6 8-5 7-2h14l21 5 19 8 18 12 12 11 9 7-5-10-11-12-12-9-19-10-14-5-15-3h-20l-10 4-7 6-5 10v18l2 8v3l12 20 5 12 1 6v11l-1 8-5-5-3-4-3-13-6-10-10-12-13-8-13-5-14-3-15-1 3-3 11-7 7-8 3-5-1-13-5-14-6-8-10-6-8-2h-22l-9 2 3-3 17-8 16-6 21-5z" fill="#F9C072"/>
<path transform="translate(276,986)" d="m0 0 8 1 12 10 14 10 18 10 24 9 22 6 26 4 14 1 8 16 8 7v2l5 2 7 2h17l4 20 6 12 9 8 10 4 17 1 1 1 2 22v12l-4 24-5 19-6 16-8 16-9 14-9 10-3 3h-4l-5-12-6-7-8-4h-7l-9 3-9 6-4 5-19 1-36 1h-38l6-7 3-7v-8l-4-7-7-6-6-4-2-12-4-8-8-7-9-1-6-5-5-2h-11l-9 6-4 6-2 5-1 8-4-4-9-16-5-11-5-14-6-20-4-25-1-9v-12l6-4 5-5 6-10 1-3 4 2 9 10 11 7 16 8 3 1-12-7-13-10-8-9-6-11-2-12v-13l7-10 6-8 14-14 9-6z" fill="#F5F8F8"/>
<path transform="translate(93,1244)" d="m0 0h1l2 15 7 14 7 10v2h2l-1 14 4 9 8 6 3 1h12l4-2h18l16 5 8 6 10 3 10 2h7l8-3 7-8 4-10 3-9 11-7 16-6 16-3 12-1h20l23 2 31 6 26 9 19 9 9 11 6 4 7 2h13l8-3 4-4h2l2-5 3-12 1-5 23-5 36-4 6-1 8 11 8 10 8 5 9 3h16l8-1h21l27 3h26l30 1 19-2 18-4 10-6 8-9 3-9v-8l-3-9-3-4v-2l-4-2-3-3 7-6 3-3v2l10 1 31 7 24 8 8 3v35l-15 6-16 5-9 2 3 5 1 9-1 3 6 1 5 4 3 7v7l6 2 3 3-1 4-5 4-10 3-7 1h-25l-10-2-9-4-1-4 2-3 1-12 4-6 5-4h3l-1-3v-10l-16 4-33 5-35 4-42 4-57 4-80 3-46 1h-37l-83-2-72-4-52-4-49-6-39-6-26-5-27-7-21-8-11-7-5-6-1-2v-8l1-3h2l2-4 11-7 11-5 21-7 26-6h3z" fill="#5D475A"/>
<path transform="translate(276,31)" d="m0 0h21l28 2 27 4 26 6 33 11 24 11 18 10 12 8 11 8 13 11 8 7 7 8 9 10 11 15 9 14 7 16 6 18 4 19 1 10v25l-3 20-4 15-7 19-10 19-11 16-11 13-17 17-14 11-11 8-17 10-16 8-18 8-8 3 1 11v31l-3 16-5 13-6 11-5 5-1-1-3-18-8-17-8-11-8-9-10-6-10-4-6-1h-11l-13 1h-39l-31-3-27-5-23-6-25-9-18-8-19-10-21-14-16-13-20-20-10-13-12-19-10-21-6-19-3-14-2-19v-13l2-19 5-21 6-17 8-16 10-16 11-14 12-13 8-8 11-9 13-10 11-7 15-9 23-11 21-8 23-7 24-5 20-3zm-10 15-27 3-14 2-13 3-26 8-16 6-5 3-8 3-10 5v2l-5 1-22 14v2l-4 1v2l-4 2-11 9-12 12-9 11-12 17-6 10-6 14-6 18-3 14-1 8v32l4 20 7 19 4 7 5 6h3l3-1 1-2 16 20 11 12 14 12 17 12 19 11 16 8 20 8 18 6 26 6 29 4 13 1h32l31-3 27-5 23-6 29-10 20-9 21-11 19-13 10-8 10-9 8-8 11-14 6-10 8-21 4-18 2-11v-25l-5-25-6-18-4-9-9-16-4-6h-2l-2-5-9-10-7-8-13-12-16-12-17-11-15-8-18-8-18-7-11-3-5-2-21-5-31-4-11-1z" fill="#965748"/>
<path transform="translate(302,657)" d="m0 0h12l16 2 16 3 18 6 19 10 13 10 13 13 9 13 7 14 3 8 3 16v20l-2 1 9 24 7 26 2 15v18l-3 16-6 12-11 13-11 7-8 3h-18l-12-4-11-6-13-10-11-12-9-13-9-15-9-19-12-22-11-14-10-7-4-2 1-7 9 3 11 6h7l8-4 6-6 6 2v2h7l2-3 2-16-2-14v-14h9l10-7 3-4 1-5 5 5 10 15 11 18-5-14-8-16-7-10-4-4-2-8-4-8-5-5-5-4-9-4-13-3h-22l-11 3-12 7-6 3-4 4-13 4-9 6 21-9 3 17v6l-10 6-10 9-9 8v3l3 1v2l4 1-1 6-6 15-9 9v11l-3 5-1 4 2 1h7l8-7 10-9 9-6 3-1h7l1 5-11 1-9 5-10 9-9 11-11 18-8 17h-2v-22l1-15 3-8v-10l-2-14v-7l4-11v-12l-3-9-3-5 1-5 6-7 7-5-12 6-5 6-8-6 1-8 7-10 11-12 11-9 18-11 15-6 17-4z" fill="#F5F7F7"/>
<path transform="translate(168,1210)" d="m0 0h11l10 5 10 7 5 4 7 11 1 5-2 8v11l2 6 1-16 3-7h14l6 1h139l17-2 18-3 6-2 9-6 6-2h9l8 5 4 6 2 6-1 10-4 6-3 5h2l6 12 2 8v16l-5 10-3 3-8 3h-8l-10-4-6-5-4-8-17-8-15-6-13-4-21-5-16-3-26-2h-16l-18 2-17 4-12 5-9 6-2 1-6-12-3-3 4 13v15l-4 11-7 7-5 2h-6v-2l6-3 6-7v-3l-5 6-7 3-3 1h-13l-5-6v-9l3-7-5 8-2 3-3-2v-2h-3l2-5 3-5v-3l-7 7-10 6-4 1h-7l-9-3-8-7-4-7 1 9 6 10h-7l-8-4-4-8-1-13-4-6v-4l11-3 1-1-10-1-6-4-1-1v-7l3-6 9-6 6-1-3 10v3l7-12 8-8 10-4h11l8 16 4 5 3 2v2l-8 6-6 7-4 8-3 11h2l1-5 4-8 11-11 5-3h5l4 6v15l-3 12 4-2 5-6 4-11v-8l-3-4v-3l-9-3-8-5-8-9-4-9-1-13 3-9z" fill="#C37B5B"/>
<path transform="translate(203,723)" d="m0 0 7 6 6 10 2 5v13l-3 9-6 8-2 3 7-6 1 5v25l-2 4-1 8-1 27-3-3-3-5 1 4 5 11 6 18 2 15v28l-3 16-6 16-7 11-5 5-6 5-5 5-13 8 3-1 12-6 13-10 7-9 7-12 7-26 3 3 1 6h2l7 11 8 10 11 10 16 11 3 2 2 8 6 9 10 10 15 10 14 7 19 7 19 5 19 3 35 3 1 1v11h-14l-26-4-25-7-25-10-14-8-11-8-15-12-8-1-7 3-9 7-13 13-9 14-1 1v13l2 12 6 11 9 10 14 10 12 7-2 1-17-8-11-7-10-9-4-5-2-1-1 5-7 11-8 6-3-1v-33l1-22 5-37-4 15-4 20-1 8-2 1-5-2-9-2-16-5-13-5-5-3-4-1v-2l-5-1-11-6-14-10-13-12-1-2-1-19h-2v8h-2l-2-18v-8l10 3 13 3 18 1 14-2 13-5 10-7 7-7 7-11 5-11 3-13v-20l-3-13-8-16-6-8-6-5-7 1h-17l-9-3-10-8-5-6v6l-2-2-2-6v-18l4-10 6-7 5-3 5-2h10l7 3 5 4 6 14-4 4-13 6-12 2v2h1l15-1v11l3 3 6 2h18l7-3 1-11v-70z" fill="#B25C48"/>
<path transform="translate(159,699)" d="m0 0h14l10 4 8 7 6 8 2 6v16l-7 16-4-4v-2l-4-2-9-4-4-1h-13l-11 3 7-1h12l9 2 9 6 5 8 1 3v16l-6 12-3 4h-2l-6-14-7-5-4-1h-10l-10 5-6 8-3 8v18l2 5 1-4 8 9 9 6 7 2h17l7-1 8 7 7 10 7 16 2 10v20l-4 15-8 16-11 12-10 7-13 5-14 2-18-1-16-4-10-4-2 4-2-10-2 1-2-25h-2l1-23 3-12 5-10 7-9 5-6 8-6 1-2 11 3-9-6-4-5 1-2h1v-11l-4-5v12l-2-2v-13l2-7 4 2-2-5-2-4-1-7v-13l3-13 4-11v-31l2-3 1 2 5-4 5-6-1-3-4 1 2-4 9-6 11-4zm-4 6-4 2v2l6-1v-3zm-10 43-2 2 1 1h5l-1-3z" fill="#F9C072"/>
<path transform="translate(517,478)" d="m0 0h14l22 4 16 4 10 4 16 8 16 9 13 9 12 9 14 12 16 16 11 14 11 16 12 21 14 29 5 15 4 16 3 26v22l-3 25-4 13-4 6-9 10-9 7-14 8-15 6-15 4h-3l2-9 8-16 7-11 9-11 6-6h2v-2l8-7 6-7 2-7v-9l-4-16-7-14-3-4v-2h-2l-7-10-10-11-7-8-4-4v-2l-4-2-9-10-6-9-10-16-10-13-9-11-8-8-8-7-15-12-28-18-25-8-26-5-8-1h-33l-7 1 3 2-20 1 7-11 5-5 8-2h30l23 4 36 12 17 8 17 9 18 10 11 5h8l1-2-1-9-11-12-12-11-14-9-6-3v-2l-6-2-16-8-12-5-6-3-13-4z" fill="#5F3F44"/>
<path transform="translate(317,105)" d="m0 0h11l18 2 21 5 14 6 15 9 9 7 8 11 4 14v11l-3 11-6 12-8 10-11 12-9 9-8 7-5 5h-2l-1 3-8 7-14 14-1 2h-2l-1 7v4l-6 8h-2v2l-14 8-3 1h-9l-5-5-4-7-5-5-2-8 1-5 4-5 4-1 1-3 8-6 21-21 9-11 9-14 4-8 2-7v-12l-4-8-3-3-7-3h-21l-16 6-10 6-13 9h-7l-6-8-5-12-1-6v-13l5-13 9-10 9-6 14-5 9-2z" fill="#F16453"/>
<path transform="translate(189,498)" d="m0 0h17l6 3-1 4-9 10 1 3h3l2 1 3 2 13 2 5 4 3 7h2v22l-5 21-4 12-9 17-9 12-14 14-10 7-15 7-10 2h-10l-12-5-10-9-7-11-4-13-2-13v-17l2-8 3-13 8-18 6-9 1-2h2l1-4h2l2-5 4-4 5-2 1 2-4 4 15-12 11-6 11-4z" fill="#F5F8F8"/>
<path transform="translate(586,600)" d="m0 0h15l9 4 11 8 15 14 31 31 10 13 10 15 4 9-1 6-7 12-11 14-9 9-13 10-10 6-13 6-7 3-11 3h-20l-9-3-8-10-4-12v-22l2-11 4-15 2-9 3-8 8-25 3-8 3-10v-13l-4-5h-24l-7-2-3-5v-1l21-2z" fill="#DF7F54"/>
<path transform="translate(635,1230)" d="m0 0h32l16 4 14 5 15 9 9 8 6 10 2 7v16l-4 11-8 8-8 4 2-4 5-7 4-14v-10l-2-8-6-12-9-7 8 10 4 11v19l-3 10-6 8-9 4h-17l-16-3 5-10 3-11v-16l-4-13-5-9-5-6 2 4 5 11 3 15v21l-3 8-5 6-8 4h-23l-40-3 6-8 5-10v-11l-5-12-9-10-4-2 5 5 6 9 3 11v5l-8 7-7 3-5 1h-8l-12-3-10-6-7-6v-8l5-12 2-3h2l2-5 4-3h2v-2l6-2h10l15 5 12 6-5-6 2-6 7-8 12-5 12-3z" fill="#F5F7F7"/>
<path transform="translate(638,875)" d="m0 0h1v8l-3 13-3 3-8 11-17 17-13 9-15 9-19 9-25 9-28 7-28 4h-40l-24-3-19-5-17-7-11-7-8-7-7-11-4-11 1-3 9 10 9 7 15 7 7 2h15l19-5 18-7 45-8 32-8 18-6 7-3-2-2 9-2v2l2 1h10l19-2 16-5 16-8 14-10z" fill="#BD9592"/>
<path transform="translate(266,807)" d="m0 0h11l9 4 2 1v2l4 2 5 6 7 14 7 20 8 16 7 11 11 12 5 3-3 9-4 6-7 6-12 5-6 1h-24l-16-3-21-7-13-5-8-11-4-7-3-24-1-10 7-14 10-13 12-13 11-8z" fill="#F5F8F8"/>
<path transform="translate(205,1041)" d="m0 0h3v41l2 17 5 28 5 21 5 14 6 12 3 8 2 6h2l1 4v1l3 1v3h2v3h2l3 5v4l-13 13-5 4-9-1-14-2-2-1v-2l-4-2-7-5 2-1 6 2-10-5-14-5h-15l-12 2h-6l2-5 7-8 6-5 4 1 6 5 16 4h24l7-1-21-1-17-3-7-3-6-5-1-4h-2l-6-21-2-16v-24l4-20 6-16 8-14 12-14 10-9z" fill="#F9C072"/>
<path transform="translate(57,287)" d="m0 0 4 4 3 6 7 2 3-3 10 14 13 15 12 11 16 12 21 13 16 8 21 9 21 7 26 6 29 4 13 1h32l31-3 27-5 23-6 29-10 20-9 21-11 19-13 10-8 10-9 7-7 11-14 1 3-7 11-10 13-14 15-13 12-15 11-15 9-11 6-17 8-23 9-3 1-1 5 6 12 4 13 1 10v20l-3 15-4 10h-1l-1-14-2-2-5-16-6-11-6-8-5-5-13-9-8-4-5-2h-16l-14 1h-37l-29-3-31-6-23-7-21-8-26-13-16-10-12-9-10-9-8-7-11-12-11-15-12-21z" fill="#6B7B91"/>
<path transform="translate(688,1089)" d="m0 0h8l16 4 13 7 10 9 8 10 7 12 6 16 3 12 2 16v19l-3 17-4 12-8 14-12 14-6 6-3-1-4-5-6-5-7-20-5-11-2-7h-2l-5-12-1-13-2-44-2-37z" fill="#A75444"/>
<path transform="translate(364,548)" d="m0 0h41l19 2 27 6 15 5-4 9-1 4v11l4 11 2 3-6-1-11-4-15-3h-20l-10 4-7 6-5 10v18l2 8v3l12 20 5 12 1 6v11l-1 8-5-5-3-4-3-13-6-10-10-12-13-8-13-5-14-3-15-1 3-3 11-7 7-8 3-5-1-13-5-14-6-8-10-6-8-2h-22l-9 2 3-3 17-8 16-6 21-5z" fill="#F5F7F6"/>
<path transform="translate(338,763)" d="m0 0h2l4 8 8 9 8 6 14 8 10 7 6 7 5 10 2 8v9l-3 10-5 6-2 1 1 7 5 10 8 7 7 3h13l12-4 3 2-1 7-11 12-9 6-9 3h-14l-16-6-14-9-10-9-10-10-2-6h-2l-2-3v-3h-2l-10-20v-2h-2l-7-16-7-14v-3h-2l-6-11-2-4-4-2-8-6-1-3 5 2 10 5h7l8-4 6-6 6 2v2h7l2-3z" fill="#FBD9CA"/>
<path transform="translate(453,850)" d="m0 0 4 4 8 11 15 15 2 1v2l5 2 10 7 16 8 21 6 14 2-3 2-12 5-24 7-31 7-35 6-24 9-13 3h-15l-12-4-13-7-10-9-5-6 3 11 6 10 5 6 10 7 16 8 21 6 17 3 11 1h40l28-4 28-7 27-10 21-10 17-11 10-8 14-14 7-10 3-3-2 6-7 12-9 11h-2l-1 3-8 7-12 9-16 8-14 6-23 8-23 6-26 4-11 1h-40l-24-3-22-5-16-6-14-8-8-7-9-13-5-15-1-14 1-5 8 6 9 7 14 7 11 3h18l13-5 10-8 9-11 5-10 6-10 4-11z" fill="#F5F7F6"/>
<path transform="translate(480,473)" d="m0 0h32l27 4 15 4 6 2-4 1-18-4-7-1h-12l16 5 9 4 26 13v2l6 2 15 10 15 14 8 9 1 9-2 3h-8l-19-9-17-10-23-11-13-5-27-9-23-4h-30l-9 3-6 7-4 6 19-1h37l11 2-5 4-5 5-8 5-1 2v9l1 5-11 10-31-7-32-6 3-2 8-6 7-8 4-6v-16l2-7 2-10 5-6 10-6 14-4z" fill="#876364"/>
<path transform="translate(639,928)" d="m0 0 5 5 10 19 10 27 4 13 5 19 3 14 4 26v7l-2-3-11-29-9-21-5-8-5-4-4-1h-17l-20 4-24 8-20 9-27 14-21 12-22 12-22 11-11 4-5 1h-13l-9-3-3-3 9 2h11l12-4 6-4 7-8 4-8 2-9v-8l-2-11 4-1 5 5 7 2 9-1 16-5 12-5 8-4 19-10 14-8 9-5 18-12 12-9 9-7 6-7h2v-2h2l1-4h2l2-5z" fill="#BC6C4D"/>
<path transform="translate(694,704)" d="m0 0h1v7l-3 9-9 10-16 16-10 14-7 11-2 6h-2l-1 5-6 18-5 24h-2v-3h-2l-4-7v-3h-2l-5-14-2-8-1-11-1 5v7l3 12v4h2l9 24 4 9 5 17 2 11v12l-2-3-10 9-15 10-14 7-16 5-19 2h-10l-4-2 7-4h2v-2l7-3 10-7 3-3h2v-2l6-5 1-3 5-5 8-14 5-14 2-12v-12l-3-6-21-21-12-17-8-16-4-14v-14h1l3 14 6 12 6 5 8 4 5 1h17l20-4 23-11 14-10 10-9 5-5 9-13 1-2h2l1-5z" fill="#A85545"/>
<path transform="translate(203,723)" d="m0 0 7 6 6 10 2 5v13l-3 9-6 8-2 3 7-6 1 5v25l-2 4-1 8-1 27-3-3-3-5 1 4 5 11 6 18 2 15v28l-3 16-6 16-7 11-5 1v2l-9 6-5 5-2-3h2l-1-3v-7l-2-3-5 1-4 1-2-2 1-3 12-7 9-9 7-11 5-11 3-13v-20l-3-13-8-16-6-8-6-5-7 1h-17l-9-3-10-8-5-6v6l-2-2-2-6v-18l4-10 6-7 5-3 5-2h10l7 3 5 4 6 14-4 4-13 6-12 2v2h1l15-1v11l3 3 6 2h18l7-3 1-11v-70z" fill="#BB6B4C"/>
<path transform="translate(338,907)" d="m0 0h1l1 16 3 12 11 21 8 8 14 7 22 5 28 5 10 1-4 2-18 3-10 1h-28l-20-2-26-5-30-10-23-11-12-8-11-9-2-3 11 3 11 1h18l4-1-18-5-14-6-11-7-11-9-4-5 6 1 19 7 17 4 6 1h24l12-3 10-6 5-6z" fill="#BC9492"/>
<path transform="translate(307,682)" d="m0 0 15 1 18 5 9 6 6 10v8l-4 6-4 3h-11l-6-4-3-6v-7h-3l-1 10 2 6-17 1 4-9 2-7-8 13-2 3-7-7-5-2v2l4 2 7 8-6 7-7 10-6 11-7 16-2 9-11 2-9 6-7 7-8 7-3 2h-7l-3-2 1-4 3-5v-11l5-5 3-1 2-5 5-13 2-6-4-1v-2l-4-1 1-4 15-14 10-7 4-1-3-19-1-3-20 9-2-1 11-7 9-3h4l1 2 5-4-1 3v8l6 4 6 2h8l7-2 5-4 2-6-5 3-4 3-3 1h-8l-6-2-3-2v-6l10-7 9-4z" fill="#BB7F76"/>
<path transform="translate(431,1230)" d="m0 0h9l8 5 4 6 2 6-1 10-4 6-3 5h2l6 12 2 8v16l-5 10-3 3-6 1-10-3-8-6-4-7-2-6-2-1 8-6 2-4 1-8-3 3-7 11-1-2-5-2-16-6-30-8-15-3-28-3-12-1v-1l10-1h13l19 2h11l22 5 11 3-24-8-26-6-24-3v-1l9-3h24l47 4-11-2-27-3-45-3-2-2 39-1 31-2 23-4 6-2 9-6z" fill="#F5C08F"/>
<path transform="translate(508,1138)" d="m0 0 2 4 11 28 9 20 1 4v9l-12 21-4 11-1 5v20l4 12-14 6-26 8-17 3-5-12-6-8-1-3 7-6 4-12 5-2 8-8 10-15 8-16 6-15 5-17 4-21z" fill="#BC9492"/>
<path transform="translate(266,807)" d="m0 0h11l9 4 2 1v2l4 2 5 6 7 14 7 20 11 22h-15l-15-2-24-5-26-8-18-8-1-3 4-8 10-13 12-13 11-8z" fill="#FBD7C8"/>
<path transform="translate(688,1089)" d="m0 0h8l16 4 13 7 10 9 5 12 3 15v13l-4 15-6 10-7 7-7 3h-10l-8-4-5-6-3-8-3-43-1-21z" fill="#F9C072"/>
<path transform="translate(307,576)" d="m0 0h16l12 4 8 7 8 14 3 8-1 4-10 7-12 5-5 1h-11l-7-3-3-4v-23l-5 15-5-2-6-2-14 1-14 7-12 12 3-1 14-5 14-3-4 4-10 8-12 16-9 6 6-1-3 3-3 2h7l1 6 3-1 2-4 1 5-10 4-7 4h-2v-38l2-9 8-11 10-13 10-10 14-7 12-4z" fill="#F7BE72"/>
<path transform="translate(146,1233)" d="m0 0h11l8 16 4 5 3 2v2l-8 6-6 7-4 8-3 11h2l1-5 4-8 11-11 5-3h5l4 6v15l-2 8-4-1-2 4-9 8-10 4h-7l-9-3-8-7-4-7 1 9 6 10h-7l-8-4-4-8-1-13-4-6v-4l11-3 1-1-10-1-6-4-1-1v-7l3-6 9-6 6-1-3 10v3l7-12 8-8z" fill="#C47C5C"/>
<path transform="translate(631,918)" d="m0 0 4 1 5 7-2 6-4 6h-2l-1 4h-2v2h-2l-2 4-3 1-1 3-14 11-17 12-13 8-21 12-26 13-13 5-16 5-11-1-7-5v-2l-2-1 13-7 12-9 12-11 4-5 6-3 19-5 27-10 13-7 8-4h2l1-2 10-6 14-12z" fill="#9D4D42"/>
<path transform="translate(266,787)" d="m0 0h9l12 6 3 3v2l3 1 2 4 2 1 6 11 7 12 8 17 11 20 12 17 11 12 12 9 17 8 11 3h14l7-2 9-4 8-6 7-7 1 2-6 9-9 10-11 7-9 3h-18l-14-4-14-8-13-11-4-4-8-7-7-8-10-16-8-19-6-17-7-12-6-5v-2l-6-2-5-2h-11l-11 6-12 11-11 13-6 9-5 11h-2l2-9 5-16 7-13 2-4h2v-3h2l2-5 11-12 6-5z" fill="#BA7E74"/>
<path transform="translate(274,1172)" d="m0 0 7 1 6 7 3 8v19h2l1-2h2l3-6h-3l-1-12-2-8 5 2 5 7 4 14 3 7 8 5 4 5 1 2v6l-5 2h-9-4l6 4 5 1-4 6h-16l1-2-8 1-3 1h-9l5-5 12-11-10 5-5 4-1 2h-2l-2 4h-9l4-2v-3l-9 5h-30l-4-1v-2l9-7 12-11 8-8 4 1 6 3-8-14v-13l9-6 8-7z" fill="#C37A5B"/>
<path transform="translate(179,484)" d="m0 0h16l10 3 7 4v2l8 6 7 11 5 13 1 11-2 1-2-4v-4l-4-2-16-4-5-3-2 1-1-4 10-11v-3l-5-2h-17l-13 3-12 6-8 6-10 9-1-2 4-5-6 3-4 5-1 2h-2l-1 4h-2l-2 5-8 14-4 10-3 13-2 8v17l3 17 4 11 8 11 9 7 10 4-1 2-10-2-12-6-11-11-7-12-3-9-2-13v-21l4-20 8-19 8-13 8-10 12-12 10-7 20-9z" fill="#7B6268"/>
<path transform="translate(502,525)" d="m0 0 13 1 2-1h11l5 3v2h8l9 4 10 7 3 5 1 7 4 5 1 5-3 6-4 2h-7l-3-1-1 7-2 3-3 1h-7l-7-9-16-4-5-4-6 1h-10l-6-3-2-2v-9l3-4-3-3v-8l2-2h6l2-6z" fill="#EDBB8E"/>
<path transform="translate(60,1322)" d="m0 0h6l6 4 2 6 18 7 16 6 12 5 5-1 2-1h8l5 4v9l-4 4h-3l2 4 11 3 2 2-1 5-10 5-10 2h-12l-10-3-6-7-5-5-5-4-8-5-17-7-16-5-3-6v-6l4-5 4-2 3-6z" fill="#483335"/>
<path transform="translate(424,161)" d="m0 0h1l1 6h2v8l1 1v11l-1 12-7 14-3 7-7 8-4 5-5 5-4 2-2 5-10 8-12 11-8 7-5 6v6l-6 7-5 4h-2v2h-2v2l-6 4-4 2v2l-11 5h-12l-5-2v-2l-4-1v-2h-2l-4-7-4-5-2-6 4 3v2l4 2 8 3 9-1 12-5 11-7 8-7-2-10 24-24 8-7 13-12 12-12 5-7 4-4 7-12 3-9z" fill="#DE8259"/>
<path transform="translate(358,717)" d="m0 0 1 4-6 7-6 3-2 2-9-1 2 20 1 11-2 13-3 4-7-1v-2l-6-1-9 8-5 2h-7l-16-8-3-2 1-9 10-24 8-13 4-5 16-3h8l6 4 3 1h9l7-4z" fill="#BB7F75"/>
<path transform="translate(759,1316)" d="m0 0h9l6 3 5 6 1 9-1 3 6 1 5 4 3 7v7l6 2 3 3-1 4-5 4-10 3-7 1h-25l-10-2-9-4-1-4 2-3 1-12 4-6 5-4h3l-1-9 3-7 6-5z" fill="#463132"/>
<path transform="translate(453,517)" d="m0 0h37l11 2-5 4-5 5-8 5-1 2v9l1 5-11 10-31-7-32-6 3-2 8-6 7-8 4-6 1-4 8-2z" fill="#876364"/>
<path transform="translate(219,1148)" d="m0 0 2 2 4 12 6 12 3 8 2 6h2l1 4v1l3 1v3h2v3h2l3 5v4l-13 13-5 4-9-1-14-2-2-1v-2l-4-2-7-5 2-1 6 2-10-5-14-5h-15l-12 2h-6l2-5 7-8 6-5 4 1 6 5 16 4h24l7-1-5-1 6-7 1-2v-21z" fill="#DC7E54"/>
<path transform="translate(567,546)" d="m0 0 5 2 12 9 14 12 10 10 9 11 12 17h-3v-2l-5-2-13-8-8-2-15 1-17 3h-16l-16-8-11-7-22-11-3-3 3-1 6 1 9 3 10 3 9 9 9 1 6-3 2-3 1-5 11-1 5-4 1-3v-7l-4-5z" fill="#5F3F44"/>
<path transform="translate(293,975)" d="m0 0 11 2 13 5 24 6 19 3 12 1 31 1-1 6v12l4 9-19-1-30-5-16-5-16-8-11-6-15-10-8-6z" fill="#715558"/>
<path transform="translate(442,659)" d="m0 0h7l9 6 7 8 9 16 1 5v3l4 9v9l-9 3-11-1-13-5-10-6-9-9v-13l5-12 7-10z" fill="#705457"/>
<path transform="translate(307,682)" d="m0 0 15 1 18 5 9 6 6 10v8l-4 6-4 3h-11l-6-4-3-6v-7h-3l-1 10 2 6-17 1 4-9 2-7-8 13-2 3-7-7-5-1-1 1h-8l-7-2-2-2v-5l8 4 3 1h8l7-2 5-4 2-6-5 3-4 3-3 1h-8l-6-2-3-2v-6l10-7 9-4z" fill="#7C6166"/>
<path transform="translate(152,775)" d="m0 0h10l7 3 5 4 6 14-4 4-13 6-12 2v2h1l15-1v11l3 3 6 2h18l5-1-2 3-11 4-9 3h-17l-9-3-10-8-5-6v6l-2-2-2-6v-18l4-10 6-7 5-3z" fill="#BB6C4D"/>
<path transform="translate(511,583)" d="m0 0 5 2 14 8 14 10 5 3 4 1 8 11 12 19 4 8 1 8-6 20-3 8-7 29h-1v-35l-8-22-11-24-11-17-12-16-8-12z" fill="#A45445"/>
<path transform="translate(735,1110)" d="m0 0 5 5 10 16 6 16 3 12v10l1 14-1 12-10 1h-34l-4 2-8 1-1 5h-2l-4-10-3-11v-17l2 4 5 8 6 4 3 1h10l8-4 8-9 5-12 2-9v-13l-3-15-4-9z" fill="#B45E48"/>
<path transform="translate(329,521)" d="m0 0 10 2 9 8 7 8 4 3v2l-11 2h-6l-6-9-4-3h-11l-9 4-11 7-5 5-4 1-2 4-5 6-4 3-3 5-6 6h-2l-2 4-7 6-2 3h-2l2-10 2-12 1-27 35-10 24-7z" fill="#DE7F54"/>
<path transform="translate(232,495)" d="m0 0 4 2v2l3 1 8 11 5 13 3 13v31l-3 17-3 9-9 19-10 16-12 14-14 11-4 1-4-6-2-4 11-9 11-12 9-13 8-15 5-11 4-15 2-15v-25l-3-15-4-9-5-9z" fill="#788294"/>
<path transform="translate(634,845)" d="m0 0 2 3 4 19v12l-2-3-10 9-15 10-14 7-16 5-19 2h-10l-4-2 7-4h2v-2l7-3 10-7 3-3h2v-2l6-5 1-3 5-5 4-2v-2h2v-2h2l1-3 4-2 5 1 17 2 1-2 3 3h4l-1-9-2-6z" fill="#9F4D42"/>
<path transform="translate(694,704)" d="m0 0h1v7l-3 9-9 10-16 16-10 14-3 5-3 1-3 4h-2v-2l-2 1-1 4-1 1h-5v3h-14l-4 1-1-7-1 3-3 3-1 7h-2l1 7-3 6-4-2-10-2-1-1h-7-3l-5-5-10-15-7-17-2-8v-14h1l3 14 6 12 6 5 8 4 5 1h17l20-4 23-11 14-10 10-9 5-5 9-13 1-2h2l1-5z" fill="#B25C48"/>
<path transform="translate(174,481)" d="m0 0h23l15 6 9 7 8 11 5 11 3 10 1 8v20l-3 18-6 18-10 19-7 9-11 12-10 9-14 8-12 4-5 1h-17l-12-4-10-6-6-5-7-10-5-10-4-15v-29l5-21 7-16 6-11 9-12 9-10 14-11 13-7zm5 3-9 2-18 8-12 9-13 13-7 10-8 14-6 15-4 20v21l2 13 5 13 7 10 9 9 12 6 10 2 17-2 11-4 11-6 10-8 13-13 10-15 8-17 6-22 1-6v-22l-3-14-5-12-8-11-6-4-1-3-10-4-6-2z" fill="#3E2B2D"/>
<path transform="translate(168,1210)" d="m0 0h11l10 5 10 7 5 4-2 7v15l2 11v5l-12-1-10-3-9-6-8-9-4-9-1-13 3-9z" fill="#F5C18F"/>
<path transform="translate(520,1242)" d="m0 0h1l1 9 2-5 2 1 1-2 7-2h9l7 6 10-1 1-2h15l12 3 8 5 4 5-2 1-16-8-10-3h-10l-6 1v2l-6 4-2 4h-2l-6 15v8l9 7 10 5 9 2h8l10-3 8-6 2-1-1 9-5 8-9 6-7 2h-12l-12-5-7-7-7-14-8-11-5-10-3-8z" fill="#DE8055"/>
<path transform="translate(298,327)" d="m0 0 9 1 7 2 7 6 2 3v5h6l1-3h2l2-6 5 5 1 2v10l-1 4-5 4-5 6-11 2h-8l-9-3-10-7v-2l-4-2-4-5-1-2v-14l3 4 1 2 2-8 6-3z" fill="#B3604A"/>
<path transform="translate(231,744)" d="m0 0h9l4 2v2l4 1-1 6-6 15-9 9v11l-3 5-1 4 2 1h7l8-7 10-9 9-6 3-1h7l1 5-11 1-9 5-10 9-9 11-11 18-8 17h-2v-22l1-15 3-8v-10l-2-14v-7l4-11 1-10 1-1z" fill="#F9D7C8"/>
<path transform="translate(175,478)" d="m0 0h21l13 4 2 1v2l5 1 10 9 6 8 6 14 3 14v26l-3 17-4 12-5 12-5 9-8 12-8 10-8 7-10 8h-4l-1 3-13 6-17 3h-11l-11-3-11-6-8-7-7-8-7-14-4-17v-22l2-15 3-12 5-12 10-19 10-13 11-11 13-9 14-7zm-1 3-14 5-14 8-13 11-9 10-10 15-9 19-5 19-1 5v29l4 15 6 12 9 11 11 7 10 4 4 1h17l12-3 16-8 13-11 8-8 8-10 9-16 6-14 4-15 2-13v-20l-2-10-4-13-5-9-8-10-9-6-13-5z" fill="#AA9093"/>
<path transform="translate(301,677)" d="m0 0h22l16 4 9 5 5 4 6 9 2 5 2 7 7 8 9 17 7 17-1 2-14-22-10-15-2-1-7 8-6 3h-9l-8-4-1-1h-8l-12 2h-5l-9-10-2-1v-2l5 1 7 7 7-12 4-6 1 2-5 13-2 3 15-1-2-5v-6l2-4h3l2 10 5 5 2 1h11l5-4 2-4v-8l-6-10-8-5-18-5-15-1-13 3-11 6-4 3-1 6 9 3h8l6-3 3-3h3l-1 6-8 6-5 1h-8l-9-4-4-3v-8h-1l-3 2 1-5 6-5 14-7 8-3z" fill="#3C2829"/>
<path transform="translate(453,501)" d="m0 0h30l23 4 36 12 17 8 13 7 5 9 5 3-1 2-4 1-28-18-25-8-26-5-8-1h-33l-7 1 3 2-20 1 7-11 5-5z" fill="#5F3F45"/>
<path transform="translate(252,148)" d="m0 0h1l2 14 4 11 7 10 6 5 6 1 6-8 11-8 10-6 16-4h13l9 6 4 9v6l-5-1v-2l-6-2h-13l-14 5-12 7-9 9-7 2-10-1-7-4-7-10-5-11-1-6v-18z" fill="#DF855D"/>
<path transform="translate(604,648)" d="m0 0 2 1-6 21-1 5v22l4 15 7 11 7 5 3 1h7l9-4 3-1 1-3 6-5 9-12 1 2-5 9-2 4h-2l-2 5-9 10-12 8-8 3-3 1h-13l-5-5-5-7-3-12v-21l4-20 6-18z" fill="#9F4E42"/>
<path transform="translate(273,967)" d="m0 0 3 4 6 9 10 10 15 10 14 7 19 7 19 5 19 3 35 3 1 1v11h-14l-26-4-25-7-25-10-14-8-11-8-15-12-8-1-7 3-9 7-12 12-1-2 10-19 12-16z" fill="#BC9491"/>
<path transform="translate(403,649)" d="m0 0 5 2 9 4 5 1h20l-5 5-8 10-5 15v15l7 15 9 14 11 12 11 8 15 8 19 5 7 1 1 2-18 2-16-1-14-3-9-10-11-15-5-8-8-18-7-14v-27l-4-8-7-11z" fill="#BD6D4E"/>
<path transform="translate(179,484)" d="m0 0h16l10 3 7 4v2l8 6 7 11 5 13 1 11-2 1-2-4v-4l-4-2-16-4-5-3-2 1-1-4 10-11v-3l-5-2h-17l-13 3-12 6-8 6-10 9-1-2 4-5-5 1 4-5 13-10 1-1-6 4h-3v-4l2-5-2-1 3-3 16-7z" fill="#9AB4BD"/>
<path transform="translate(743,1023)" d="m0 0 5 1v3l-11 4-11 9-8 11-9 17-4 17-18-1-3-26v-5l8-8 6-5 19-9 15-5 11-2z" fill="#624044"/>
<path transform="translate(332,874)" d="m0 0 5 2 11 13 10 9 14 8 12 5 8 2h14l7-2 9-4 8-6 7-7 1 2-6 9-9 10-11 7-9 3h-18l-14-4-14-8-13-11-4-4-8-7-7-8-3-5 10-2z" fill="#BC9592"/>
<path transform="translate(440 1e3)" d="m0 0h1l3 12 5 4h9l2-10 5 5 2 5v14l-5 10-8 7-4 2h-9l-10-6-4-6-1-3v-15l5-10 3-4h2v-2z" fill="#BC9492"/>
<path transform="translate(413,147)" d="m0 0h2l2 5 2 9 2-1 1 4v-10l-1-7 3 4 4 12v4l-3 1-3 15-7 14-5 7h-2l-2 4-9 10-14 14-8 7-13 12-7 6-7 8-1 4 2 3-1 5-3 2 1-4h2v-2l-4 2-4 4-5 2-4 1-1 3-6 2 4-4h2v-2h2l2-4 4-5-1-7 2-3h2l2-5 10-9 9-9 8-7 8-8 8-7 10-10 11-14 7-14 2-9v-11z" fill="#F6F1ED"/>
<path transform="translate(203,723)" d="m0 0 7 6 6 10 2 5v13l-3 9-6 8-2 3 7-6 1 5v25l-2 4-1 8-1 27-3-3-3-5v-2l-3 1 1-8-2-1 1-11v-70z" fill="#A05344"/>
<path transform="translate(687,1167)" d="m0 0h1l1 28 3 11 8 16 5 13-1 4-17-7-9-3-12-2-28-1 2-2 10-3 11-6 12-11 8-12 5-11z" fill="#994C42"/>
<path transform="translate(234,1059)" d="m0 0 4 2 7 8 3 13v11l-3 7-6 7-9 5-5 2h-5l-1 3-3-24v-12l6-4 5-5 6-10z" fill="#F9C073"/>
<path transform="translate(379,401)" d="m0 0 4 1 7 14 4 13 1 10v20l-3 15-4 10h-1l-1-28-3-12-6-11-9-10-10-8-10-5 4-2z" fill="#F5F7F6"/>
<path transform="translate(198,1278)" d="m0 0 9 1 8 7 3 6v11l-4 10-7 6-7 2h-13l-5-6v-9l12-23z" fill="#F6C18F"/>
<path transform="translate(329,642)" d="m0 0h20l15 4 17 9 9 7 5 5 2 14-4-1-14-9-14-7-10-4-25-6-18-2 5-5 8-4z" fill="#F3F4F4"/>
<path transform="translate(274,1172)" d="m0 0 6 1-3 14v22l-5-5-6-3 7 9v5l-17 17-7 1-6 3h-9l1-2h-5l6-7 8-7 10-10 4 1 6 3-8-14v-13l9-6 8-7z" fill="#F7BF77"/>
<path transform="translate(60,1326)" d="m0 0h6l3 2-1 7 6 1 28 11 19 8 4-1 2-2h7l2 3-1 5-2 2h-6l2 5v5l-2 2h-7l-2-2 1-6-5-1-30-13-20-9-4-2-1 3-6 1-3-3v-5l2-2 5-1 2-7z" fill="#DAB098"/>
<path transform="translate(502,525)" d="m0 0 13 1 2-1h11l-1 2h-7v2l-4 2-1 2v8l1 1h7l-1 2-3 1h-7v-11l-3-3h-6l-4 4 1 10-3-1-3-6-3 1 1 5 4 2v3l5 1 1 1v5h-4v-5l-3 1-1 6 4 3 7-1 1-1 8 1 18 8 3 2 7 1v3l-5-1 1 4 6-1 1-1v-7l-3-3 3-1 3 2h11l4-4-1-5-1-1-9 1-6 4v-5l4-1v-2l6-3v-7l-1-1-7-1-1-5-5-2-7 1-2 1 2-6 9 1 6 3 10 7 3 5 1 7 4 5 1 5-3 6-4 2h-7l-3-1-1 7-2 3-3 1h-7l-7-9-16-4-5-4-6 1h-10l-6-3-2-2v-9l3-4-3-3v-8l2-2h6l2-6z" fill="#D8AE99"/>
<path transform="translate(447,667)" d="m0 0h5l2 3 1 5 7 6 4 2 4 5 7 12 1 3v8l-4 4-14-4-4-3-6-3-4-5-3-7-5-13 1-5 3-4h2l1-2z" fill="#856364"/>
<path transform="translate(317,105)" d="m0 0h11l18 2 21 5 12 5-3 1-8-2-16-2h-3l-25 5-21 2-9 1-7 1-6-2-10 4-3 3h-2l-1 3h-2l2-5 9-9 14-7 16-4z" fill="#E08055"/>
<path transform="translate(413,637)" d="m0 0 15 1 9-1h19l12 3 10 5 7 7 7 12 3 8 6 12-4-2-13-11-9-5-12-4-8-6-4-2v-2l19-4-13-1v-1l-25-2-15-4-4-2z" fill="#A45445"/>
<path transform="translate(47,1346)" d="m0 0 4 2h8l5-2 24 11 13 5 13 6 2 7 1 3h11l4-4 1-6 13 4 2 2-1 5-10 5-10 2h-12l-10-3-6-7-5-5-5-4-8-5-17-7-16-5z" fill="#737F93"/>
<path transform="translate(210,372)" d="m0 0 8 2 7 1 9 2 6 1h10l3-3h8l15 2h26l4-1h8l10 2h10l6-2 1 1 16 1 3-1 10 2v1l-24 4-17 2h-51l-28-3-26-5-16-4z" fill="#9AB6BF"/>
<path transform="translate(205,1041)" d="m0 0h3v41l2 17 5 28 2 11-4-5-12-31-7-24-3-14-1-12 8-6z" fill="#BB6C4D"/>
<path transform="translate(651,765)" d="m0 0h2l-2 4-3 8h-2l-1 5-6 18-5 24h-2v-3h-2l-4-7v-3h-2l-5-14-2-8-1-11-1 5h-2v-6l2-3h2l1-4 1 3v5l5-2 13 1v-3l6-2 1-4h2v2z" fill="#A65444"/>
<path transform="translate(238,594)" d="m0 0 1 3h2l3 5-3 9-9 15-8 10-7 8-13 10-4 1-4-6-2-4 11-9 11-12 9-13 7-12h2l2-4z" fill="#BA9391"/>
<path transform="translate(219,1148)" d="m0 0 2 2 4 12 6 12 3 8 2 6h2l1 4v1l3 1v3h2v3h2l3 5v4l-10 10-7-6v-2h-2l-7-11v-2h-5v-1l-5-1 6-7 1-2v-21z" fill="#AA5746"/>
<path transform="translate(615,511)" d="m0 0 5 2 16 12 14 12 16 16 11 14 11 16 12 21 14 29 5 15 4 16 3 26v22l-3 25-2 3 1-21v-21l-2-19-5-25-9-27-9-20-7-13v-2h-2l-8-14-9-12-9-11-11-12-7-7-16-14-13-10z" fill="#B99290"/>
<path transform="translate(759,1320)" d="m0 0h9l5 4 2 4-1 9-5 5-9 1h-1l4 3 1 3v8l-5 5-4 2-8-1-5-5-1-2v-6l4-6 5-3h5l-3-7v-7l4-5z" fill="#DDB297"/>
<path transform="translate(353,275)" d="m0 0 5 2 1 5-10 10-11 9h-2l-1 4-12 4h-9l-4-2-6-1v-2h-2l-4-7-4-5-2-6 4 3v2l4 2 8 3 9-1 12-5 11-7 7-4 4-3z" fill="#BE7051"/>
<path transform="translate(667,1292)" d="m0 0 1 3-3 8-5 6-8 4h-23l-40-3 6-8 4-8 5 4 9 3 5 1h23l16-4z" fill="#D9AF98"/>
<path transform="translate(538,1278)" d="m0 0h1l2 6 8 6 10 5 9 2h8l10-3 8-6 2-1-1 9-5 8-9 6-7 2h-12l-12-5-7-7-4-8-1-3z" fill="#DAB098"/>
<path transform="translate(57,287)" d="m0 0 4 4 3 6 7 2 3-3 10 14 13 15 12 11 4 4 1 3-4 1v-2l-5-1-5 3-5-2-5-5-8-7-11-15-12-21z" fill="#9BB2BB"/>
<path transform="translate(226,1029)" d="m0 0 2 4 4 16 4 10h-2l-1 5-7 11-8 6-3-1v-33l2-16 1-1z" fill="#BA6B4C"/>
<path transform="translate(509,979)" d="m0 0h6l-6 7-13 10-18 10-5-5-8-7-6-4 1-3 6-4 30-2z" fill="#5F3F44"/>
<path transform="translate(143,1234)" d="m0 0h5l-1 5-9 17-9 8-9 3h-11l-3-3v-7l3-6 9-6 6-1-3 10v3l7-12 8-8z" fill="#F4C090"/>
<path transform="translate(439,995)" d="m0 0h2v5l-9 7-5 6-3 6-1 4v11l3 10 5 6 7 4h12l8-4 6-5 5-9 1-4v-11l-3-8-5-6-4-2v-9l4 2 5 5 6 9 2 8v11l-3 10-7 9-5 4-8 4-3 1h-9l-10-4-7-7-4-9-1-3v-13l3-10 7-10 7-6z" fill="#EBE6E3"/>
<path transform="translate(160,809)" d="m0 0h7v11l3 3 6 2h18l5-1-2 3-11 4-9 3h-17l-9-3-9-7 3-10 4-4h3z" fill="#9E4D41"/>
<path transform="translate(364,548)" d="m0 0h11l-4 3-11 8-16 4-16 6-4 1h-22l-9 2 3-3 17-8 16-6 21-5z" fill="#F7BF75"/>
<path transform="translate(152,494)" d="m0 0 2 1 1 3v3l-2 4 2 1-9 7-8 8-10 14-9 17h-2v-2h-2l-1-7-1-5 8-14 9-11 12-12z" fill="#8E6B69"/>
<path transform="translate(688,592)" d="m0 0h2l12 23 9 23 6 20 4 21 2 19v21l-1 22-4 11-2 1 1-13 1-12v-24l-3-25-6-28-9-29-11-27z" fill="#7B6064"/>
<path transform="translate(743,1023)" d="m0 0 5 1v3l-11 4-11 9-8 11-9 17-5 2h-7v-2l-2-1 2-4 7-11 11-13-1-1-7 3-4 1v-4l14-7 15-5 11-2z" fill="#F7BD72"/>
<path transform="translate(586,600)" d="m0 0h15l9 4 11 8 15 14 31 31 10 13 10 15 4 9v4h-2l-7-14-12-17-12-13-1-3h-2v-2h-2v-2h-2l-4-4v-2l-4-2-13-12-13-10-16-9-12-4-20 2h-10v-1z" fill="#F6BF7A"/>
<path transform="translate(255,975)" d="m0 0v3l-5 5-7 12-3 10-3 9-1 8v13l3 15 6 11 9 10 14 10 12 7-2 1-17-8-11-7-10-9-5-7-5-12-2-11 1-16 5-16 6-12 8-10z" fill="#3B2727"/>
<path transform="translate(517,478)" d="m0 0h14l22 4 16 4 10 4 16 8 16 9 9 9-2 1-2-1v-2h-2l-1 2-3-3-4-1-3-4-1-4-16-8h-6-3l-2 4-1 4-4-1v-2l-6-2-16-8-12-5-6-3-13-4z" fill="#745865"/>
<path transform="translate(188,649)" d="m0 0h6l4 4v25l-10-2h-10l-7 1v-20l12-5z" fill="#BC9492"/>
<path transform="translate(266,787)" d="m0 0h9l12 6 3 3v2l3 1 2 4 2 1 2 5h-3l-7-6-7-3-12-1-8 2-8 4-12 11-8 11-4 7-3 3-1-4 7-13 2-4h2v-3h2l2-5 11-12 6-5z" fill="#A45748"/>
<path transform="translate(159,699)" d="m0 0h14l10 4 8 7 6 8 2 6v14h-2l-4-12-6-9-8-5-6-2h-17l-7 3-10 6-4 3 4-8h-4v-3l8-6 9-4zm-4 6-4 2v2l6-1v-3z" fill="#F4F2F0"/>
<path transform="translate(285,624)" d="m0 0h6v4h3v12l-4 12-7 3-5 1h-7l-2-6-1-12 2-4h3l2-4 6-4z" fill="#8C6867"/>
<path transform="translate(256,970)" d="m0 0h4l1 2 2-1-2 8 4-3-2 5-7 11-8 15-5 10-6 8-1 10h-1v-13l3-16 3-8 6-12 6-8 1-1-8 7-9 14-5 13-3 16h-1l-1-8 2-5 3-13 9-15 2-3h2l2-4 7-8z" fill="#A85947"/>
<path transform="translate(709,1227)" d="m0 0 5 1h3 10l6 3 1-1h5l1 6v1h2v-2l4-2 1 2-7 9-9 10-3 3-3-1-4-5-6-5-6-17z" fill="#994C42"/>
<path transform="translate(694,704)" d="m0 0h1v7l-3 9-9 10-16 16-10 14-3 5-3 1-3 4h-2v-2l-2 1-1 4-1 1h-5v3h-13l-1-4 4-4v-3l4-2 10 2-2-4 8-5 5-5 12-9 9-8 5-5 9-13 1-2h2l1-5z" fill="#B25C47"/>
<path transform="translate(714,1288)" d="m0 0 1 2-3 10-6 8-9 4h-17l-16-3 5-10 2-7 1 3 11 3h13l11-4z" fill="#D9AF98"/>
<path transform="translate(735,1110)" d="m0 0 5 5 10 16 6 16 3 12v7l-1 5-7-3-10-2-2-5 3-12v-13l-3-15-4-9z" fill="#BA6B4C"/>
<path transform="translate(156,1210)" d="m0 0 4 1-3 5-2 10h-1v-5h-2v-3l-2 1 1 2-5 1-1-2h-4l-2 5-1 2 5 1-4 2-7 4-6 7h-9v-1l7-1 1-2-7-1-1-1v-5l-3 2-1 5-6 1-2 5-1 6h-1v-8l2-8-1-2 2-2 3 1 5-3 4-2 14-8 13-5zm-34 14-1 2 3-1zm12 4v2l3-1z" fill="#F3F3F3"/>
<path transform="translate(175,478)" d="m0 0h21l13 4 2 1v2l5 1 10 9 6 8 6 14 3 14v26h-2l-1 2-1-25-2-10-4-13-5-9-8-10-10-6-11-4h-23l-14 5-14 8-13 11-9 10-3 3h-2l2-5 11-12 10-9 15-9 14-5z" fill="#E7E6E6"/>
<path transform="translate(520,528)" d="m0 0 7 1 2 2v8l-6 7-6 5h-13v2h-2l-2-3-4-1v-3l-5-2-1-5 4-2 3 5v2h2l-1-9 5-5h6l4 4v10l9-1h-6l-2-2v-8l3-4z" fill="#5F3D3E"/>
<path transform="translate(307,682)" d="m0 0 15 1 18 5 9 6 6 10v8l-2 4h-2l-6-12-7-8-10-4-14-4h-13l-12 6-5 5-6 1v-5l10-7 9-4z" fill="#F1EDEB"/>
<path transform="translate(274,1172)" d="m0 0 6 1-3 14v22l-5-5-6-3 7 9v4l-3-1-3-5v-2l-4-2v3l-4-1-3-6v-13l9-6 8-7z" fill="#F4C294"/>
<path transform="translate(280,776)" d="m0 0 5 2 5 5 8 6 4 5 4 8v2h2l7 16 7 14v3h2l8 16 2 6h2l2 6h2l5 8 14 14 15 10 12 5 6 2 14 1 2 2h-18l-12-4-11-6-13-10-11-12-9-13-9-15-9-19-12-22-11-14-10-7-4-2z" fill="#EEEDED"/>
<path transform="translate(204,724)" d="m0 0 6 5 6 10 2 5v13l-3 9-6 8-3 3h-2l-1-33 1-10z" fill="#A85545"/>
<path transform="translate(686,1181)" d="m0 0h1l2 21 2 5-1 5-5 1v4l-4 2-24 1v2l-6 1 3 2-16 1 2-2 10-3 11-6 12-11 8-12z" fill="#B45F48"/>
<path transform="translate(321,533)" d="m0 0h3l-1 3-10 8-22 22-19 14-10 9-8 11-1-3 3-9 3-1 5-5 6-7 8-7 4-6 5-5 5-6 4-2 5-5 14-9z" fill="#8E4F41"/>
<path transform="translate(447,667)" d="m0 0h5l2 3 1 5 7 6 4 2 4 5 1 5-1 2h2l1 6-1 4-3 1-8-3-6-7-5-4-3-5v-7l1-2-2-1 2-3-1-1z" fill="#946F6B"/>
<path transform="translate(579,888)" d="m0 0 2 1-2 5 5 1 9-2h3v-2l6-1 3 1-1 4 2 1-6 2-1 2h-5l-3 5-15 3-12 1h-10l-4-2 7-4h2v-2l7-3 10-7z" fill="#A95645"/>
<path transform="translate(409,1077)" d="m0 0 3 1-9 6-15 6-16 4-14 2-22 1-21-1-7-1v-1l6-1 28-2 32-5 25-6z" fill="#C19994"/>
<path transform="translate(232,495)" d="m0 0 4 2v2l3 1 8 11 5 13 3 13v20l-5-5-1-2-4 21-3 10h-2l4-26v-25l-3-15-4-9-5-9z" fill="#EDF1F2"/>
<path transform="translate(792,1349)" d="m0 0h1v7l6 2 3 3-1 4-5 4-10 3-7 1h-25l-10-2-9-4-1-4 3-7 2 3 3 5 5 3h9l7-4h4l4 3h12l6-4 2-4z" fill="#7A8395"/>
<path transform="translate(179,484)" d="m0 0h16l10 3 7 4v1h-22l-12 3-10 4-8 3-4 3h-3v-4l2-5-2-1 3-3 16-7z" fill="#B49090"/>
<path transform="translate(154,745)" d="m0 0h12l9 2 9 6 5 8 1 3v13h-2l-6-12-8-7-12-3-17-2-6-3 1-2zm-9 3-2 2 1 1h5l-1-3z" fill="#F4F3F1"/>
<path transform="translate(604,648)" d="m0 0 2 1-6 21-3 19v7l-1 4 3 7v6l-7 9h-5v-21l4-20 6-18z" fill="#985241"/>
<path transform="translate(525,549)" d="m0 0 5 2 3 6v7l12 3 1 1v7l-4 3-4-1-2-5 6 1v-1l-7-1-16-8-8-3h-5l-3 2-7-1-3-3 1-6 4-1v5l5-2h7l7 1 5-5z" fill="#3E2828"/>
<path transform="translate(196,774)" d="m0 0h1l1 7v34l-10-2h-17l-1-5 11-7 7-8 6-11h2z" fill="#8B5044"/>
<path transform="translate(105,582)" d="m0 0 6 1v18l5 18 8 14 2 4 4 2 6 5-4 1-9-6-9-9-7-12-3-9-2-13v-13z" fill="#BB9492"/>
<path transform="translate(461,1014)" d="m0 0h4l2 5v14l-5 10-8 7-4 2h-9l1-12 5-5 10-4h2l2-10z" fill="#926F6D"/>
<path transform="translate(480,473)" d="m0 0h32l27 4 15 4 6 2-4 1-18-4-26-3h-26l-16 2-16 5-8 4-8 6-3 6h-1v-7l4-6 9-6 9-4 15-3z" fill="#BA9391"/>
<path transform="translate(571,703)" d="m0 0h1l1 21 3 15 6 12 9 6 7 2 15 2-4 2h-20l-9-3-8-10-4-12v-22l2-11z" fill="#B15F48"/>
<path transform="translate(438,1015)" d="m0 0h3l3 3 5 1h9l2 5-2 5-11 5h-3l-2 4-2 5-3-1-4-8-1-10z" fill="#9AB5BE"/>
<path transform="translate(756,1340)" d="m0 0 1 3 5 2 2 4v8l-5 5-4 2-8-1-5-5-1-2v-6l4-6 5-3h5z" fill="#DBB198"/>
<path transform="translate(773,1340)" d="m0 0 10 2 5 6v8l-5 6-2 1h-9l-5-5-2-3 1-9z" fill="#DBB198"/>
<path transform="translate(168,1210)" d="m0 0h11l10 5 4 5v6l-4 3h-8l-12-6-5-6 1-5z" fill="#F5F5F4"/>
<path transform="translate(317,105)" d="m0 0h11l18 2 21 5 12 5-3 1-24-6-15-2h-23l-16 2-15 5-11 7-4 4h-2l-1 3h-2l2-5 9-9 14-7 16-4z" fill="#F6BF7A"/>
<path transform="translate(555,494)" d="m0 0 5 2 10 5v2l6 2 15 10 13 12v1h-5-2v2h-2l-1-5-14-1-6-5 1-3 3 3-2-4v-3l-4 2-1-3v-3l-1-3-8-4-4 2-5-6v-2z" fill="#7B6165"/>
<path transform="translate(423,697)" d="m0 0 8 6 7 6 14 8 18 6 9 5 6 1-1 4h-11l-16-6-14-8-12-9-4-4v-2h-2l-2-3z" fill="#F4F0EE"/>
<path transform="translate(261,834)" d="m0 0h9l12 6 5 4 5 8-1 2-12-2-13-5-2-1v-2l-4-2-2-4-2-2z" fill="#B97F76"/>
<path transform="translate(237,554)" d="m0 0 3 3v8l-4 16-6 14-4 8-7 12-8 10-13 13-7 5-4-1 5-5 13-12 9-10 9-15 7-15 4-13z" fill="#9CACB5"/>
<path transform="translate(339,702)" d="m0 0h5l6 9 2 6-5 4h-11l-6-4-2-3v-10l2-1z" fill="#936E6B"/>
<path transform="translate(174,1255)" d="m0 0 8 4 8 3 4 7v8l-4 11-8 9-3-1 3-12v-15l-3-5-3-2-1-4z" fill="#924F42"/>
<path transform="translate(434,674)" d="m0 0 1 2v9l5 12 4 4v2l3 1v2h2l3 4v2l2 1-4 1-13-7-10-10v-13l3-8z" fill="#5F3F44"/>
<path transform="translate(413,147)" d="m0 0h2l2 5 2 9 2-1 1 4v-10l-1-7 3 4 4 12v4l-3 1-3 15-7 14-5 7-1-3 4-8-3-1-2 1 2-5 5-13 1-5v-11z" fill="#F9D4C0"/>
<path transform="translate(401,768)" d="m0 0 3 4 8 16 6 16 3 12 2 14v12l-4 2-3-5-7-16-1-3h2l6 8 1 2-2-17-4-15-8-23-2-4z" fill="#473132"/>
<path transform="translate(295,1257)" d="m0 0h32l24 3 28 7 17 6 2 2-10-2-16-4-22-5-26-3h-47l3-2z" fill="#452C2C"/>
<path transform="translate(279,1267)" d="m0 0h55l21 3 26 6 23 7 8 4-2 1-34-10-27-5-15-2-14-1-47-1v-1z" fill="#472E2E"/>
<path transform="translate(453,517)" d="m0 0h37l11 2-4 3-11-1h-38l-12 2-6 8-9 16-12-1 3-2 8-6 7-8 4-6 1-4 8-2z" fill="#B99290"/>
<path transform="translate(440,493)" d="m0 0h3v3l2 1v2l5-3h8l6 1 1 2 7-1 9 1-1 2-27 1-9 3-6 7-4 7-2 1-1-2v-10l4-11z" fill="#7C6064"/>
<path transform="translate(329,521)" d="m0 0 10 2 9 8 7 8 4 3v2h-5l-3-5-7-8-5-4-3-1h-15l-25 7-30 10-4 2v-6l35-10 24-7z" fill="#E6BA98"/>
<path transform="translate(60,1326)" d="m0 0h6l3 2v9l10 3 6 4-4 3-5-1-6-2-2-2-8-2-1 4-6 1-3-3v-5l2-2 5-1 2-7z" fill="#F6C28E"/>
<path transform="translate(285,624)" d="m0 0h6v4h3v12l-4 10-3 1-3-3v-2h-2l-3-4v-2l-2-1v-2l-2-2 5-3z" fill="#95706C"/>
<path transform="translate(538,533)" d="m0 0 7 1 3 2v5h7l2 2v7l-4 3-8 1-2-4 1-1 7-1 2-4-8 3h-11l-4-3 1-6 4-4z" fill="#3D2829"/>
<path transform="translate(234,918)" d="m0 0 9 6 8 6 12 6 17 5 12 3v1h-18l-16-2-8-4-7-7-9-12z" fill="#624349"/>
<path transform="translate(298,621)" d="m0 0 3 1 3 5v13l4 2 7-1 4-2 3 1-9 6h-2l-2 4-2 2-7 1h-8l3-10 2-11z" fill="#F2B974"/>
<path transform="translate(403,649)" d="m0 0 5 2 9 4 5 1h20l-5 5-5 6h-14l-5-1-8-13z" fill="#9C4E42"/>
<path transform="translate(152,775)" d="m0 0h10l7 3 5 4 3 6v5l-6-4-5-4-8-3h-8l-8 4-7 10-1 13-2 1v-13l4-10 6-7 5-3z" fill="#432A2A"/>
<path transform="translate(278,967)" d="m0 0 9 3 11 5-4 1-2 3 11 8 18 11 19 9v1l-8-1-18-8-14-8-9-7v-2l-4-2-7-7z" fill="#5D3E43"/>
<path transform="translate(442,659)" d="m0 0h7l9 6 7 8 9 16 1 5-3-1-6-9-4-2-7-6-2-2-1-6-7-1-2 1v-2l-4 1v-5z" fill="#5F3F44"/>
<path transform="translate(336,625)" d="m0 0 4 1-5 4h-2v2h-3v2l-2 1 3 1-4 2-10 3-4 2-8-1-2-2 1-12 10 2h11l10-4z" fill="#A35649"/>
<path transform="translate(122,516)" d="m0 0 2 1-9 13-9 19-5 19-1 5v29l2 8v6h-2l-2-5-2-10v-22l2-15 3-12 5-12 10-19 3-3 2 1z" fill="#A68E93"/>
<path transform="translate(219,1148)" d="m0 0 2 2 4 12 4 8 2 9 4 8-2 9-3 1-4-2-1-3 2-2h3v-2l-4-2-1-6h-2l-2 4-2-28z" fill="#B25E48"/>
<path transform="translate(172,689)" d="m0 0h20l5 2v18l-3-2v-2l-4-2-6-4-13-4-1-5z" fill="#906A67"/>
<path transform="translate(694,704)" d="m0 0h1v7l-3 9-9 10-16 16-10 14-4 5-1-4 3-3 1-3h2l-1-2-6 2-1-2 13-9 10-9 5-5 9-13 1-2h2l1-5z" fill="#975044"/>
<path transform="translate(581,619)" d="m0 0h6v7l-5 17-2 1-10-18-3-4v-2z" fill="#5F3F44"/>
<path transform="translate(274,611)" d="m0 0h16l8 5-3 1h-7l-10 2-19 5-11 5 2-4 3-3 5-3 8-5z" fill="#9B5246"/>
<path transform="translate(516,507)" d="m0 0 10 1h8l3 1 2 5 1-2 7 1 4 3v2l9 1 4 3h-2v2l4-1 2 1v2l9 2-1 2-7 1-23-11-13-5-17-6z" fill="#7D6165"/>
<path transform="translate(519,594)" d="m0 0 5 4 14 16 10 16 6 14 7 22 1 7-2-1-9-24-10-21-10-15-12-16z" fill="#402928"/>
<path transform="translate(639,630)" d="m0 0 8 6 7 8 13 13 10 13 10 15 4 9v4h-2l-7-14-12-17-12-13-1-3h-2v-2h-2v-2h-2l-4-4v-2l-4-2-5-5z" fill="#F4BE78"/>
<path transform="translate(502,525)" d="m0 0 13 1 2-1h11l-1 2h-7v2l-4 2-1 2v8l1 1h7l-1 2-3 1h-7v-11l-3-3h-6l-4 4 1 10-3-1-3-6-3 1 1 7-2 1-3-3v-8l2-2h6l2-6z" fill="#DAAC92"/>
<path transform="translate(507,563)" d="m0 0 5 1 6 4 14 3 7 9h7l3-1 3-9 10 1v2h-7l-1 7-5 4-9 1-6-3-3-4v-2l-9-3-11-3-4-2h-5l1-3z" fill="#382424"/>
<path transform="translate(356,549)" d="m0 0h14v1h-5v2l-30 7-22 5-7 4-8 3-5 1 3-3 17-8 16-6 21-5z" fill="#F2F0EE"/>
<path transform="translate(466,983)" d="m0 0h23l-4 5-13 10-4-2-9-6 1-3z" fill="#715558"/>
<path transform="translate(342,257)" d="m0 0v3l-1 2h-2l-1 7v4l-6 8h-2v2l-14 8-8 1-5-3-2-4-3-7 1-3 3 3 6 1 12 6 8-4 5-6 2-1 1-10z" fill="#BF6F4F"/>
<path transform="translate(280,776)" d="m0 0 5 2 5 5 8 6 4 5 4 8v2h2l7 16 5 10v3h-2l-8-16-8-14-9-11-10-7-4-2z" fill="#F0EEED"/>
<path transform="translate(414,666)" d="m0 0h17l-2 5-5 15v11h-3l-3-3-2-1v-21z" fill="#DD8056"/>
<path transform="translate(192,650)" d="m0 0 5 1 1 2v25l-14-3 4-3-3-1 1-8 3-5h3z" fill="#EFECEB"/>
<path transform="translate(307,682)" d="m0 0 15 1 3 6h2v2l-13-3h-13l-12 6-5 5-6 1v-5l10-7 9-4z" fill="#EAD0C5"/>
<path transform="translate(437,637)" d="m0 0h19l12 3 10 5 7 7 7 12v4h-2l-4-8-5-5-1-3-16-8-14-3-19-2v-1z" fill="#432B29"/>
<path transform="translate(732,1265)" d="m0 0 5 4 4 8 1 3v8l-5 10-9 8-4 2 2-4 4-6 3-9v-17z" fill="#D7AE99"/>
<path transform="translate(532,1062)" d="m0 0v3l-3 2-4 2-8 9-7 15-3 11-2 2-2-6 3-14 6-12 7-7 9-4z" fill="#BD6E4F"/>
<path transform="translate(333,173)" d="m0 0 5 1 3 3 4 2 2-1v6l-5-1v-2l-6-2h-13l-14 5-12 7-9 9-7 2-10-1-7-4-1-3 5 2 4 2h12l6-4 4-2 2-4 12-7 8-3 9-3 7-1z" fill="#DBB199"/>
<path transform="translate(450,983)" d="m0 0h6l-1 4v25l-2 3-5-1-2-6v-15l3-9z" fill="#EEECEA"/>
<path transform="translate(164,499)" d="m0 0 2 1-13 9-8 7-6 8-1 2h-2l-1 4h-2l-2 5-8 14-4 10-3 13-2 8-1 22h-1v-28l4-15 6-15 8-14 11-13 8-8 13-9z" fill="#423032"/>
<path transform="translate(458,996)" d="m0 0 4 2 5 5 6 9 2 8v11l-3 10-4 2v-6l2-5v-11l-3-8-5-6-4-2z" fill="#EEE8E6"/>
<path transform="translate(418,597)" d="m0 0h14l2 2-16 5-10 5-7 8-3 6h-1v-9l5-9 5-4z" fill="#F3EEEB"/>
<path transform="translate(535,549)" d="m0 0 4 2 7 8h2l4-3 9-1 3 3-1 6-4 3h-9l-3-3-6-2-6-10z" fill="#4C3131"/>
<path transform="translate(327,539)" d="m0 0 5 1 5 6v2l-30 10 2-4 13-12z" fill="#5F3F44"/>
<path transform="translate(167,1249)" d="m0 0 4 2 3 3 3 5-1 4-9 6-8 8-5 10-1 3h-2l1-8 4-9 6-8 8-7h2l-5-5z" fill="#432B2A"/>
<path transform="translate(307,703)" d="m0 0 4 2-1 7-6 9-7-7-5-1-1 1h-8l-7-2-2-2v-5l8 4 3 1h8l7-2z" fill="#8C6968"/>
<path transform="translate(687,1167)" d="m0 0h1l1 28 3 11 7 14v3l-19-2-16-1v-1l16-1 3-1h2l-1-4 6-2-1-7-2-8z" fill="#A25344"/>
<path transform="translate(413,637)" d="m0 0 18 1 19 2 14 3 7 3v1h-14v-1l-25-2-15-4-4-2z" fill="#9D5748"/>
<path transform="translate(408,992)" d="m0 0h7l-2 6v8l2 8 1 1v5h-4l-5-5-3-7 1-11z" fill="#F3DBD1"/>
<path transform="translate(549,544)" d="m0 0h4l-1 4-1 1-7 1 1 3 5 1-3 2-2 3-7-8-2-1 2 6 4 6 6 2v3l-4-2-5 1-6-2-2-10-1-2h3l-1-5 2-1h11z" fill="#D7AD95"/>
<path transform="translate(308,1250)" d="m0 0h40l27 2 27 4 2 2-49-4-41-2-6-1z" fill="#4E302E"/>
<path transform="translate(271,629)" d="m0 0 4 1-2 4h-3l-1 5 2 16 1 2-9 1-2-2-2-9 3-7z" fill="#5F3F44"/>
<path transform="translate(714,1037)" d="m0 0 2 2-9 10-6 9h-6l-1-3 4-15 4-1 1 2 4-1z" fill="#BD6C4D"/>
<path transform="translate(647,755)" d="m0 0 2 1-4 4-5 2 1 4-4 1-2-2-5 1-2 1-2 4-4 5v-5h-2v-2l-7 3h-12l-16 1v-2l-6-2-1-3 11 3h17l20-4z" fill="#A55444"/>
<path transform="translate(720,1272)" d="m0 0 3 4 3 9v6h2l-3 9-8 8-8 4 2-4 5-7 4-14z" fill="#D6AD97"/>
<path transform="translate(315,323)" d="m0 0 8 1 3 8v7l1 3h2v2l-6 1-1-3-1-4-5-6-5-2-8-2-9 1-6 2-2 4v-6h2l1-3 5-2h10l12 5 6 5-3-7z" fill="#F8D1BA"/>
<path transform="translate(175,679)" d="m0 0h17l6 3v7l-6-2h-17l-5 1v-7z" fill="#DAB099"/>
<path transform="translate(501,575)" d="m0 0 5 1 23 12 15 10 5 5 2 4-5-2-12-8-16-10-13-8z" fill="#F3E1D9"/>
<path transform="translate(440 1e3)" d="m0 0h1l1 7-7 6-4 8v7l1 11-3 1-3-6v-15l5-10 3-4h2v-2z" fill="#906D6C"/>
<path transform="translate(517,478)" d="m0 0h14l16 3 3 2 4 1-1 5-5 2-12-5-6-3-13-4z" fill="#604757"/>
<path transform="translate(160,809)" d="m0 0h7l-1 11-2-4v-4l-13 2-2 2-2 8 5 1v2l3 1 1 2 7 1 5-1 6 3v1h-14l-9-3-9-7 3-10 4-4h3z" fill="#9B5643"/>
<path transform="translate(227,498)" d="m0 0 5 5 6 14 3 14v26h-2l-1 2-1-25-2-10-4-13-4-8z" fill="#E5E9EB"/>
<path transform="translate(524,553)" d="m0 0 5 1 2 8 1-5h1v7l12 3 1 1v7l-4 3-4-1-2-5 6 1v-1l-7-1-6-4-1-4-7-5 2-4z" fill="#442C2B"/>
<path transform="translate(315,535)" d="m0 0h2l-2 4-5 5-4 2-2 4-2-1-4 6-5 1-3 3v3l-7 5h-2v2l-4 1 5-8 5-5 5-6 4-2 5-5z" fill="#A35043"/>
<path transform="translate(604,528)" d="m0 0 7 6 4 7v6l-2 3h-8l-7-3v-6l6 1v2l2 1 1-1-1-8-2-1 1-2h-2l-2-4z" fill="#7C6165"/>
<path transform="translate(179,484)" d="m0 0h16l10 3 5 3-2 1-12-1-14 2-10 3-1-2 5-8z" fill="#F2F5F5"/>
<path transform="translate(503,530)" d="m0 0h6l4 4v8l-4 3h-8l-3-6 1-6z" fill="#462D2D"/>
<path transform="translate(304,106)" d="m0 0h15v1l-15 3-21 7-11 7-4 4h-2l-1 3h-2l2-5 9-9 14-7z" fill="#F8C284"/>
<path transform="translate(296,689)" d="m0 0 2 1-2 3 3 1 2 5-2 1 1 3-5 2h-8l-6-2-3-3 8-3 3-4 4-2z" fill="#856364"/>
<path transform="translate(441,987)" d="m0 0h2l-1 3-8 4-9 7-6 6h-2l-1-8 3-6 3-2z" fill="#5E3F45"/>
<path transform="translate(250,552)" d="m0 0 4 2 1 3v11l-3 17-3 4-1-3-2 1v-13l3-9h3l-2-11z" fill="#96B0BA"/>
<path transform="translate(743,1023)" d="m0 0 5 1v3l-11 4-9 7-1-3h-7l-8 1v-3l13-5 18-4z" fill="#EAE8E8"/>
<path transform="translate(431,1230)" d="m0 0h9v3l-10 7-8 3-6-1v-4l9-6z" fill="#F3EFEC"/>
<path transform="translate(371,263)" d="m0 0 3 1-8 7-5 6v6l-6 7-5 4h-2v2h-2v2l-6 4-4 2v2l-11 5h-12l-5-2v-2l-2-1 5 1 3 1h9l8-3h4l1-4 9-7 4-3h2l2-4 3-3h2l2-10 5-6z" fill="#C48F81"/>
<path transform="translate(273,693)" d="m0 0v3 8l3 7-1 5-5 3-3-19-1-3-20 9-2-1 11-7 9-3h4l1 2z" fill="#F4D0C1"/>
<path transform="translate(492,545)" d="m0 0 4 1v3l5 1 1 1v5h-4v-5l-3 1-1 6 7 5v2l-9-1-5-4v-9z" fill="#E2B9A0"/>
<path transform="translate(256,970)" d="m0 0h4l-1 5-6 7h-2l2-4 1-1-8 7-9 14-5 13-3 16h-1l-1-8 2-5 3-13 9-15 2-3h2l2-4 7-8z" fill="#954F43"/>
<path transform="translate(111,579)" d="m0 0h1l1 18h1l3 17 4 11 8 11 9 7 10 4-1 2-10-2-3-2 1-1-9-7-9-14-4-10-3-13z" fill="#46373E"/>
<path transform="translate(192,1282)" d="m0 0 3 1-8 16-3 1-5 10-4-2v-2h-3l2-5 3-5v-5l3 1v4l4-2 5-6 2-5z" fill="#C1785A"/>
<path transform="translate(196,774)" d="m0 0h1l1 7v34l-9-3 4-7-1-3z" fill="#BF9791"/>
<path transform="translate(238,1251)" d="m0 0h40l12 1v2h-58v-2z" fill="#583635"/>
<path transform="translate(616,734)" d="m0 0 5 1h5l1 3-5-1-3 4v3l-6 2h-11l-2-10 4 1 5 2 6-2z" fill="#945041"/>
<path transform="translate(181,478)" d="m0 0h15l13 4 2 1v2l5 1 10 9 2 3-1 4-5-5-4-5-10-6-11-4-17-2z" fill="#EAEBEC"/>
<path transform="translate(330,1262)" d="m0 0h13l17 3-1 2-17-1-9-1h-13l-10 1h-14l1-3z" fill="#D18463"/>
<path transform="translate(237,554)" d="m0 0 3 3v8l-4 16-6 14-2 5h-3l-1-2 7-16 4-15z" fill="#919DA8"/>
<path transform="translate(431,886)" d="m0 0v3l-8 8-10 6-7 2h-14l-16-6-14-9-1-2 5 2 9 6 15 5 6 1h8l13-4 8-6z" fill="#A2B0B6"/>
<path transform="translate(349,948)" d="m0 0 3 1 6 7v2l5 2 8 5 10 5 10 3 1 2-9-1-12-4-10-6-8-8z" fill="#7C5E61"/>
<path transform="translate(231,924)" d="m0 0 4 5 9 11 11 10 16 11 3 2-1 5-5-5-5-4-5-3-3-3-4-2-12-12v-2l-4-2-4-7z" fill="#9A5144"/>
<path transform="translate(555,604)" d="m0 0h11l3 1h10l-2 1 1 3 4 3h-17l-7-2-3-5z" fill="#BF6F4F"/>
<path transform="translate(267,777)" d="m0 0h7l1 5-11 1-9 5-10 9-7 9-3-1 2-5 8-7 10-9 9-6z" fill="#F2EEEC"/>
<path transform="translate(320,705)" d="m0 0 2 2-1 2v5h2l2 6-17 1 4-9 2-4h2v-2l3 1z" fill="#906C69"/>
<path transform="translate(261,834)" d="m0 0h9l12 6 5 4 4 6-1 2-9-7-11-5-14-3 2-2z" fill="#432D2D"/>
<path transform="translate(242,655)" d="m0 0 9 1 2 4v2l3-1 2-4 1 5-10 4-7 4h-2l1-11z" fill="#ECB777"/>
<path transform="translate(297,529)" d="m0 0 5 1-2 2-23 7-13 5-2 1v-6z" fill="#F2BF8A"/>
<path transform="translate(111,623)" d="m0 0 7 1 8 11v2l4 2 6 5-4 1-9-6-9-9-3-5z" fill="#EDECEC"/>
<path transform="translate(317,1247)" d="m0 0h46l-1 2 5 1v1h-19l-29-2z" fill="#EFBA8C"/>
<path transform="translate(354,606)" d="m0 0h1v7l-7 10-8 7-14 7-3-1 4-2h3v-2h3v-2l6-4 2-6 11-7 1-4z" fill="#583A3D"/>
<path transform="translate(555,531)" d="m0 0 8 1v2l4-1v2l7 1 3 5 5 3-1 2-4 1-14-9-8-6z" fill="#5C4457"/>
<path transform="translate(186,641)" d="m0 0 4 2-4 1-1 3-13 6-10 2h-13l-2-2 13-2 12-3z" fill="#93A2AD"/>
<path transform="translate(98,567)" d="m0 0h1l1 35 2 8v6h-2l-2-5-2-10v-22l1-10z" fill="#E8E8E9"/>
<path transform="translate(358,717)" d="m0 0 1 4-6 7-6 3-2 2-10-2-6-4-3-3-6-1v-1h8l6 4 3 1h9l7-4z" fill="#9C7671"/>
<path transform="translate(694,704)" d="m0 0h1v7l-3 9-9 10-5 5h-2l2-5 9-13 1-2h2l1-5z" fill="#AE634B"/>
<path transform="translate(121,1244)" d="m0 0h3l-3 10v6l-2 1-2-4v-3h-4l-3 1-3 9h-1v-7l3-6 9-6z" fill="#EFB987"/>
<path transform="translate(434,743)" d="m0 0 2 2 1 10v21l-1 6-4-5-1-4 2-12v-10z" fill="#B2674C"/>
<path transform="translate(520,528)" d="m0 0 7 1 2 2v8l-3 4-2-1 1-2v-8h-5l-2 8 2 1-5 1-1-1v-8l3-4z" fill="#462C2C"/>
<path transform="translate(244,1013)" d="m0 0 1 3-4 16-1 17-2 1-2-12v-13l7-10z" fill="#F7BF77"/>
<path transform="translate(142 1e3)" d="m0 0 7 1 7 5 28 12 8 2 10 3v2l-6-1-16-5-13-5-5-3-4-1v-2l-5-1-11-6z" fill="#985044"/>
<path transform="translate(176,970)" d="m0 0 3 1-7 4 7-2-1 3-6 3-3 2-7 1-2 3-10-2 2-2 9-2 1-3h6l1-3z" fill="#995044"/>
<path transform="translate(546,540)" d="m0 0 9 1 2 2v7l-4 3-8 1-2-4 1-1 7-1 2-4-10 3v-4z" fill="#533535"/>
<path transform="translate(277,613)" d="m0 0h4v3l3 2-18 4-11 4h-2v-2l5-3 3-3 10-3z" fill="#C1704F"/>
<path transform="translate(562,553)" d="m0 0 4 2 3 5-1 6-3 4-3 1h-7l-4-2v-2l8-1 4-4z" fill="#D5AC97"/>
<path transform="translate(669,661)" d="m0 0 5 5 11 16 6 12v4h-2l-7-14-12-17z" fill="#F0BB7F"/>
<path transform="translate(544,564)" d="m0 0 4 2 3 1 1 2v6l-3 5-3 1h-7l-3-3v-2l6 1 3-2v-7l-3-3z" fill="#D6AE9A"/>
<path transform="translate(565,1246)" d="m0 0h11l12 3 8 5 4 5-2 1-16-8-17-5z" fill="#493131"/>
<path transform="translate(125,519)" d="m0 0 1 2h2l-1 5-2 5-1 2h-3l-1 8-1-2h-3l-2 2-1-3 8-14z" fill="#886565"/>
<path transform="translate(320,1264)" d="m0 0h13l17 2v2l8 1 1 2-18-2-31-3v-1z" fill="#DBAE94"/>
<path transform="translate(188,649)" d="m0 0h6l-2 1v8h-3l-2 5-1 8 3 1-1 2h-4v-23z" fill="#DCB7A2"/>
<path transform="translate(186,1263)" d="m0 0 5 2 3 4v8l-4 11-7 8-2-1 4-5 3-9 1-11-3-5z" fill="#402929"/>
<path transform="translate(254,1210)" d="m0 0h2l-1 4-9 10-10 9-6 1 6-7 8-7z" fill="#F1E9E5"/>
<path transform="translate(164,499)" d="m0 0 2 1-13 9-8 7-6 8-1 2h-2l-1 4h-2l-2 5-3 5-2-1 2-6 11-14 10-10 13-9z" fill="#46383D"/>
<path transform="translate(458,996)" d="m0 0 4 2 5 5 5 7-2 4-3-1-5-6-4-2z" fill="#E4D5D1"/>
<path transform="translate(120,809)" d="m0 0 4 2 2 3v26l-4-3 1-2h1v-11l-4-5v12l-2-2v-13z" fill="#EEEAE7"/>
<path transform="translate(336,625)" d="m0 0 4 1-5 4h-2v2h-3v2l-4 1-3-2-10 1-4 4-2-2v-7l7 1h11l10-4z" fill="#804A42"/>
<path transform="translate(571,703)" d="m0 0h1l1 21 1 12h-2l-2-10v16l-2-4v-22l2-11z" fill="#A45B48"/>
<path transform="translate(585,756)" d="m0 0 6 1 7 2 15 2-4 2h-20l-6-2v-3l2-1z" fill="#B7684B"/>
<path transform="translate(197,747)" d="m0 0h1l1 21-1 13-3 1-1-14v-12z" fill="#89544B"/>
<path transform="translate(270,634)" d="m0 0h2l1 3v8l3 4v2l2 1v2h5v1l-5 1h-7l-2-6-1-12z" fill="#715558"/>
<path transform="translate(315,755)" d="m0 0 5 1 3 3-1 7-1 1-7-1-3-4 2-5z" fill="#8A6463"/>
<path transform="translate(253,1269)" d="m0 0h10l-2 2-18 5-11 5h-3v-2l9-6z" fill="#4E302F"/>
<path transform="translate(395,665)" d="m0 0 3 3 5 10 2 11h-2l-8-8h2l-2-9z" fill="#A07B77"/>
<path transform="translate(216,1244)" d="m0 0h14v1h-11l-2 9-1 14 3 1v1h-6l-1-2 1-17z" fill="#8B4D42"/>
<path transform="translate(486,713)" d="m0 0 3 4 2 6 7 7-3 1-1 2-4-2h-3-2v-2h-6v-1l5-1 2-4z" fill="#CDA392"/>
<path transform="translate(174,1255)" d="m0 0 8 4 8 3v2l-4-1 4 7-1 11-2-2-2-9v-5h-2l-2-4-2 2-3-1-1-4z" fill="#894D42"/>
<path transform="translate(175,679)" d="m0 0h8l1 5 3 2-17 2v-7z" fill="#BE9995"/>
<path transform="translate(492,537)" d="m0 0 3 1 2 6h12l4-1 1 3-6 2-12 1v-3l-5-2-1-5z" fill="#D19C82"/>
<path transform="translate(291,356)" d="m0 0 5 2 9 5 8 1v2l12-1v-2l7-1-3 4-11 2h-8l-9-3-10-7z" fill="#A9AEB1"/>
<path transform="translate(179,815)" d="m0 0h12l4 2-1 3h-18l-4-2v-2z" fill="#DAB19C"/>
<path transform="translate(233,635)" d="m0 0h1v22l-4-4-3-8 1-4z" fill="#DB7E55"/>
<path transform="translate(495,551)" d="m0 0h3v5l7-2v2l7 1-2 2-7 3-7-1-3-3 1-6z" fill="#452D2D"/>
<path transform="translate(560,733)" d="m0 0h1l3 14 6 12 6 5 2 2h-4l-5-3-4-6-3-2-2-8z" fill="#985044"/>
<path transform="translate(359,1251)" d="m0 0 16 1 27 4 2 2-49-4z" fill="#754941"/>
<path transform="translate(319,833)" d="m0 0 3 1v3h2l8 16 2 6h2l2 6h2l2 4-1 3-7-10-9-15-6-12z" fill="#EFEAE7"/>
<path transform="translate(429,529)" d="m0 0 1 2-9 16-12-1 3-2 8-6 5-6z" fill="#BB9391"/>
<path transform="translate(573,531)" d="m0 0 7 1v2l5 2 5-2 4 3v2h-2l2 5-6-2-16-9z" fill="#7C6165"/>
<path transform="translate(294,324)" d="m0 0h10l9 4-2 2-8-2-9 1-6 2-2 4v-6h2l1-3z" fill="#F5B770"/>
<path transform="translate(104,573)" d="m0 0h7l1 1-1 9-5 1-4-1v-8z" fill="#916C69"/>
<path transform="translate(521,564)" d="m0 0 5 1 9 5 7 1v3l-5-1 1 3-4-1-2-3-13-3-1-3z" fill="#D2A896"/>
<path transform="translate(333,173)" d="m0 0 5 1 3 3 4 2 2-1v6l-5-1v-2l-6-2-12-1 2-3z" fill="#DEB096"/>
<path transform="translate(425,1277)" d="m0 0h2v8l-4 6-8 5v-3z" fill="#412A2A"/>
<path transform="translate(430,1061)" d="m0 0 9 2h11l9-1 1 4-5 1h-13l-9-3z" fill="#C29A93"/>
<path transform="translate(563,491)" d="m0 0 5 1 3 2v7l-5-1-12-7 2-1z" fill="#5F3F44"/>
<path transform="translate(289,264)" d="m0 0 2 1 7 14 6 9 4 4-6-1-5-7-2-4-5-5z" fill="#F0B278"/>
<path transform="translate(570,725)" d="m0 0h1l1 11h3l3 9h-3v-2h-2l1 3h-3l-1-1-1-8v-11z" fill="#B9684B"/>
<path transform="translate(204,626)" d="m0 0h2l1 3-9 9-7 5-4-1 5-5z" fill="#CBCFD3"/>
<path transform="translate(248,540)" d="m0 0h1l3 25h-3l-1 5-3 1 2-17z" fill="#75879A"/>
<path transform="translate(112,540)" d="m0 0 4 5-1 5h2l-1 3h-2v2l-6-1-1 2 1-6z" fill="#876465"/>
<path transform="translate(166,820)" d="m0 0 7 4 3 1h18l5-1-2 3-6 1h-5l-5 2h-9l-1-3-5-5z" fill="#864C42"/>
<path transform="translate(172,689)" d="m0 0h10v9l-11-3-1-5z" fill="#804A42"/>
<path transform="translate(334,218)" d="m0 0v3l-11 13-8 7-8 8-8 7h-2l1-3 8-6 21-21z" fill="#C97856"/>
<path transform="translate(101,614)" d="m0 0h2l4 10 7 10v3l-4-1-8-13-2-7z" fill="#A9989C"/>
<path transform="translate(111,579)" d="m0 0h1l1 18h1l3 17 2 7-2 2-4-10-3-13z" fill="#654C53"/>
<path transform="translate(520,532)" d="m0 0h5l1 9-3 5-3 1-1-3 2-1h-5l3-2-1-5z" fill="#6E4544"/>
<path transform="translate(519,548)" d="m0 0h5l1 2-5 3-3 3-14-1-1-2h2v-2l13-1z" fill="#D3A085"/>
<path transform="translate(528,1274)" d="m0 0h11l-1 13-5-5-5-7z" fill="#A05546"/>
<path transform="translate(251,1231)" d="m0 0 3 1-4 3h-5l1 3h-21v-2l5-3h6l-1 2h8z" fill="#D9916F"/>
<path transform="translate(160,809)" d="m0 0h7l-1 11-2-4v-4l-13 2-7 7 1-7 4-4h3z" fill="#804A42"/>
<path transform="translate(555,555)" d="m0 0h6l3 3-1 6-4 3h-8v-2l6-2 2-1 1-3h-6v-3z" fill="#422B2B"/>
<path transform="translate(308,683)" d="m0 0h14l3 6h2v2l-13-3-8-2z" fill="#F2DBD2"/>
<path transform="translate(403,649)" d="m0 0 5 2 9 4 5 1-3 2-7-1 2 5-1 4-8-13z" fill="#7E4B44"/>
<path transform="translate(130,1354)" d="m0 0 4 2-1 3-7 1-2 4-4 1-3-6 4-2 5-1 2 1z" fill="#E9BA95"/>
<path transform="translate(181,801)" d="m0 0v3l-2 3v3h9v3h-17l-1-5z" fill="#664143"/>
<path transform="translate(413,637)" d="m0 0 16 1 9 3 7 1v1l-13 1-15-4-4-2z" fill="#C1704F"/>
<path transform="translate(219,985)" d="m0 0h2l-5 25-3 13h-1v-9l4-20z" fill="#A15344"/>
<path transform="translate(482,549)" d="m0 0 1 2v7l1 4-8-1-4-1 2-4z" fill="#604145"/>
<path transform="translate(295,1257)" d="m0 0h9v1l14 1v1l-27 1h-14l3-2z" fill="#603B3A"/>
<path transform="translate(105,1229)" d="m0 0 4 1 3-1 2 5-2 3-5 1-2 5-1 6h-1v-8l2-8-1-2z" fill="#E8E6E5"/>
<path transform="translate(204,724)" d="m0 0 6 5 6 10 2 5v9h-1l-3-10-8-14z" fill="#EDB379"/>
<path transform="translate(274,705)" d="m0 0 8 4 3 1 11 1-4 2-1 1h-8l-7-2-2-2z" fill="#956F6C"/>
<path transform="translate(334,335)" d="m0 0 5 5 1 2v10l-1 4-5 4-1 2h-3l2-4 4-3 1-12-2-4-3 3 1-6z" fill="#B08278"/>
<path transform="translate(297,1263)" d="m0 0h33v1l-20 2h-14z" fill="#DF7F55"/>
<path transform="translate(122,516)" d="m0 0 2 1-9 13-4 7h-2l-1 2 1-5 7-13 3-3 2 1z" fill="#9F969D"/>
<path transform="translate(196,489)" d="m0 0 15 1 1 2h-22l-12 3-4 2-4-1 8-4 8-2z" fill="#6E707F"/>
<path transform="translate(446 1e3)" d="m0 0 1 2 7 2 1 5-2 3-5-1-2-6z" fill="#D5AC98"/>
<path transform="translate(613,892)" d="m0 0h2v2l-16 8-7 2v-3l1-2h6l4-3h3l1-3z" fill="#9F5143"/>
<path transform="translate(604,505)" d="m0 0 11 5 5 6-2 1-2-1v-2h-2l-1 2-3-3-4-1-3-4z" fill="#654D5D"/>
<path transform="translate(440,1009)" d="m0 0 2 1 5 10-6-3v-2h-3l-2 5-3 4h-2l1-5z" fill="#B79393"/>
<path transform="translate(336,732)" d="m0 0h9l-1 4-6 6-2 4z" fill="#F6D2C2"/>
<path transform="translate(317,700)" d="m0 0h3l1 2 9 1-2 1v7h-1v-7h-3l-2 10h-1l-1-6-1 1-1-3h-2v2h-2l2-6z" fill="#815F61"/>
<path transform="translate(535,549)" d="m0 0 4 2 9 11-1 2-6-2-6-10z" fill="#482E2E"/>
<path transform="translate(517,478)" d="m0 0h14l4 1 2 5-2 1-18-6z" fill="#5E3F46"/>
<path transform="translate(338,269)" d="m0 0h2v2l4 1-6 7-5 3h-2l-1 3-6 2 4-4h2v-2h2l2-4 4-5z" fill="#F4C290"/>
<path transform="translate(180,1260)" d="m0 0 4 3-1 2h2l1 8 1 1-1 7-3-3-1-9-3-5z" fill="#9E4E42"/>
<path transform="translate(266,1226)" d="m0 0 3 1-8 6-9 4h-5v-2z" fill="#543536"/>
<path transform="translate(586,600)" d="m0 0h9v1l-7 1-2 2-17 2h-10v-1z" fill="#E0B18C"/>
<path transform="translate(371,263)" d="m0 0 3 1-8 7-5 6v6l-6 7-4 2 1-4 4-4h2l2-10 5-6z" fill="#C08B81"/>
<path transform="translate(229,1172)" d="m0 0 2 2 3 8 2 6h2l1 4v1l3 1-1 2-9-1 2-8-5-10z" fill="#985043"/>
<path transform="translate(349,948)" d="m0 0 3 1 6 7v2l5 2 3 3 1 4-5-2-9-9z" fill="#7F5F62"/>
<path transform="translate(275,535)" d="m0 0h6l-2 2-7 2v2l-10 4v-6z" fill="#F1CBB7"/>
<path transform="translate(688,592)" d="m0 0h2l11 21-1 3-3-1-8-20z" fill="#856566"/>
<path transform="translate(213,1226)" d="m0 0 8 1 5 2-3 3-5 3h-2z" fill="#D4A68F"/>
<path transform="translate(536,972)" d="m0 0 3 1-13 5-12 11-4 2 12-14 6-3zm-28 19 2 1h-3z" fill="#7C4942"/>
<path transform="translate(524,553)" d="m0 0 5 1 2 10-5-2-5-4 2-4z" fill="#754845"/>
<path transform="translate(198,952)" d="m0 0h2l-2 4-6 5-5 5-6 4h-2v-2l6-4 1-4 12-6z" fill="#A15445"/>
<path transform="translate(318,559)" d="m0 0 2 1v2l-10 3-5 4-12 3 3-3 17-8z" fill="#EECBBC"/>
<path transform="translate(304,106)" d="m0 0h15v1l-15 3-2 1h-8l1-3z" fill="#F8C289"/>
<path transform="translate(701,1227)" d="m0 0 2 2 2 6-1 4-14-6v-1l10 1z" fill="#834B42"/>
<path transform="translate(408,992)" d="m0 0h7l-3 11-1-4-6 2 1-6z" fill="#CAA194"/>
<path transform="translate(647,755)" d="m0 0 2 1-4 4-5 2 1 4-4 1-2-2-5-1 2-2z" fill="#9A5144"/>
<path transform="translate(288,693)" d="m0 0 2 2-2 4 5 5h-11l-4-4 8-3z" fill="#916D6B"/>
<path transform="translate(274,611)" d="m0 0 3 1-7 4-10 4-4 4h-3l-2 4-3 1 2-4 3-3 5-3 8-5z" fill="#8E4F44"/>
<path transform="translate(341,525)" d="m0 0 7 6 7 8 4 3v2h-5l-3-5-7-8-5-5z" fill="#E6B282"/>
<path transform="translate(373,1266)" d="m0 0 9 2 16 6-3 1-13-4-15-3v-1z" fill="#794A41"/>
<path transform="translate(574,959)" d="m0 0 2 1-7 5-16 5-3-1 3-2z" fill="#884D41"/>
<path transform="translate(609,884)" d="m0 0 4 1 5-1 1 4h-2l-1 3-5 1-4-5z" fill="#A85444"/>
<path transform="translate(534,558)" d="m0 0h2v2l11 3 2 3h-3l-2-1-5 1-6-2v-5z" fill="#E7B389"/>
<path transform="translate(574,516)" d="m0 0 5 3 6 1 2-1 5 3v2h-12l-6-5z" fill="#816265"/>
<path transform="translate(550,483)" d="m0 0 4 1-1 5-5 2-6-3 3-4z" fill="#5E3F45"/>
<path transform="translate(323,1252)" d="m0 0h13v1l-14 4-7-1v-3z" fill="#DD7F55"/>
<path transform="translate(622,1228)" d="m0 0 2 1-2 2 3 2-16 4-7 3v-2l17-9z" fill="#744941"/>
<path transform="translate(213,771)" d="m0 0h1l1 5v10l-3-2v-5l-4 1-1-3z" fill="#904F44"/>
<path transform="translate(294,322)" d="m0 0 10 1v1l-13 2-3 3h-2l1 11-3-3-2-5h2l2-5 5-4z" fill="#FAD5BD"/>
<path transform="translate(259,1265)" d="m0 0m-10 1h10l-1 3-17 2 1-3z" fill="#C3795B"/>
<path transform="translate(467,1040)" d="m0 0 1 3 2 1-8 9-3 1v-2l-2-1 7-6z" fill="#E9D1C7"/>
<path transform="translate(597,681)" d="m0 0h1l1 16 2 10-4-2-2-6 1-4z" fill="#A35143"/>
<path transform="translate(164,499)" d="m0 0 2 1-13 9-8 7-5 5v-3l9-9 13-9z" fill="#3E2B2E"/>
<path transform="translate(213,485)" d="m0 0 4 2 8 7 3 4-1 4-5-5-8-10z" fill="#A7B6BE"/>
<path transform="translate(342,257)" d="m0 0v3l-1 2h-2l-1 7v4l-6 8h-2v2l-3 1 2-4 4-5 2-1 1-10z" fill="#C57350"/>
<path transform="translate(563,756)" d="m0 0 3 1 5 7 3 1-1 3-5 2-5-12z" fill="#B45F48"/>
<path transform="translate(561,550)" d="m0 0 2 1v5h-8l-6 3-3 2v-5l4-1v-2l6-1 4 1z" fill="#EBC5B1"/>
<path transform="translate(114,1252)" d="m0 0 1 2h2l-1 5-5 2h-3l1-6z" fill="#F9C172"/>
<path transform="translate(317,1247)" d="m0 0h23l2 1v2l-23-1z" fill="#DDB39A"/>
<path transform="translate(195,692)" d="m0 0h2v17l-3-2v-2l-4-2 4-6v-3z" fill="#926D69"/>
<path transform="translate(541,487)" d="m0 0 14 6-3 1-7 1-3-1-2-1z" fill="#7C6165"/>
<path transform="translate(264,695)" d="m0 0 3 1-12 6-9 4-2-1 11-7z" fill="#4B383B"/>
<path transform="translate(491,672)" d="m0 0 5 1 5 11-4-2-8-7z" fill="#C2704E"/>
<path transform="translate(126,539)" d="m0 0 1 2-5 11-5 10-1-3 6-15z" fill="#3F2D30"/>
<path transform="translate(325,175)" d="m0 0m-1 1m-5 1h5l-1 2-14 5-7 4-2-1 5-4 4-3 4-1z" fill="#DDB298"/>
<path transform="translate(462 1e3)" d="m0 0h3v2l6 2 1 4-4 2-6-7-2-2z" fill="#F2D9CE"/>
<path transform="translate(197,743)" d="m0 0h2v16h-1l-1-9-3 12h-1l-1-9z" fill="#5C3D41"/>
<path transform="translate(462,650)" d="m0 0 4 1-1 1h-5l1 6h-3l-7-4v-2z" fill="#844C45"/>
<path transform="translate(232,584)" d="m0 0 1 3-5 13h-3l-1-2 6-13z" fill="#96A2AC"/>
<path transform="translate(252,148)" d="m0 0h1l2 14 1 5-3-2-1 5h-1v-18z" fill="#DBAE97"/>
<path transform="translate(421,147)" d="m0 0 3 4 4 12v4l-3 1-1-7-2-7z" fill="#DCB198"/>
<path transform="translate(266,1201)" d="m0 0 5 1 5 6v4h-3l-7-9z" fill="#442B2B"/>
<path transform="translate(721,693)" d="m0 0h1l1 5v21h-2l-1-8z" fill="#7E5E5F"/>
<path transform="translate(319,639)" d="m0 0 3 1-9 6h-2l-2 4-2 2h-5l3-2 2-2 1-5 9-3z" fill="#E4B79D"/>
<path transform="translate(277,613)" d="m0 0h4v3l3 2-6 1h-7l1-5z" fill="#B6624B"/>
<path transform="translate(440,521)" d="m0 0h10l-3 3h-4l-1 2v-2l-3 1v1l-7 2 2-4 2-2z" fill="#7E6266"/>
<path transform="translate(201,480)" d="m0 0 4 1 6 2v2l4 2 3 4-4-2-11-5-4-2z" fill="#D2D2D5"/>
<path transform="translate(692,1056)" d="m0 0h3v2h5l-3 6-2-1-8-2v-2l5-1z" fill="#935042"/>
<path transform="translate(629,764)" d="m0 0 2 1-3 2-2 4-4 5v-5h-2l1-4z" fill="#A85544"/>
<path transform="translate(188,689)" d="m0 0 6 1 3 2-2 1 1 3v6l-2-3-3 2-1-4 1-2-2-1h4l-3-3z" fill="#935E58"/>
<path transform="translate(447,667)" d="m0 0h5l2 3-1 5-5-1-1-1z" fill="#F0E8E4"/>
<path transform="translate(164,659)" d="m0 0h4v4l-16-1-3-2z" fill="#C3A399"/>
<path transform="translate(139,652)" d="m0 0h18v1l-8 1 6 1v1h-11l-5-1z" fill="#818999"/>
<path transform="translate(239,590)" d="m0 0h2l1 10-1-3-3 1v-3l-2 3-3 2-1-2 3-6h3z" fill="#977370"/>
<path transform="translate(505,1091)" d="m0 0 3 2v9l-3 4-2-6z" fill="#BA6C51"/>
<path transform="translate(407,1011)" d="m0 0h3l1 4h5v5h-4l-5-5-1-3z" fill="#EADCD5"/>
<path transform="translate(417,693)" d="m0 0 4 2 2 3-2 6-3-1-2-4v-5z" fill="#CA7652"/>
<path transform="translate(565,688)" d="m0 0h2l-4 17-1 5h-1v-11l1-6h2z" fill="#854B41"/>
<path transform="translate(307,629)" d="m0 0 7 1 6 2v1l-7 1-4 4-2-2z" fill="#8D4E41"/>
<path transform="translate(757,1341)" d="m0 0 9 1 4 1-3 3-2 9h-1l-2-9-5-3z" fill="#3F292A"/>
<path transform="translate(174,1255)" d="m0 0 8 4 8 3v2l-8-2-2-1-1 2-3-1-1-4z" fill="#7C4941"/>
<path transform="translate(309,1247)" d="m0 0h8l2 1 17 1v1h-27z" fill="#D87F57"/>
<path transform="translate(233 1e3)" d="m0 0h2l-3 10-3 16h-1l-1-8 2-5 3-12z" fill="#8B4C44"/>
<path transform="translate(196,774)" d="m0 0h1l1 7v12l-3 2v-13z" fill="#C69C93"/>
<path transform="translate(140,717)" d="m0 0m-1 1m-1 1m-1 1m-1 1m-2 1 2 1-7 8h-2v9h-1v-13l2-3 1 2z" fill="#EAC8A8"/>
<path transform="translate(546,540)" d="m0 0 9 1v3l-12 3v-4z" fill="#523637"/>
<path transform="translate(52,1335)" d="m0 0 4 1h-3l2 6 5-1-1 3-6 1-3-3v-5z" fill="#D8AE97"/>
<path transform="translate(318,1260)" d="m0 0 18 1v1l-6 1h-10l-12-1v-1z" fill="#B77159"/>
<path transform="translate(710,1034)" d="m0 0 4 2v2l-7 3-4 1v-4z" fill="#F5BF7F"/>
<path transform="translate(165,830)" d="m0 0 5 1 4 2v1h-14l-3-1v-2h6z" fill="#945141"/>
<path transform="translate(604,648)" d="m0 0 2 1-5 17-2-2-2 1 3-9z" fill="#AE5C47"/>
<path transform="translate(233,635)" d="m0 0h1v18h-1v-12h-2l-2 4h-2l1-4z" fill="#C3795A"/>
<path transform="translate(567,546)" d="m0 0 5 2 5 5-5 1-1 2-3-3z" fill="#8F6D70"/>
<path transform="translate(535,530)" d="m0 0 9 1 5 2-1 2-10-1-5 2z" fill="#CDA491"/>
<path transform="translate(60,1326)" d="m0 0h6l3 2-1 7-1-3-2-1 1-3-5 1-2 5h-1v-6z" fill="#DAAF98"/>
<path transform="translate(450,983)" d="m0 0h6l-1 4-5 3-3 3 1-8z" fill="#C09A92"/>
<path transform="translate(198,825)" d="m0 0 3 1-10 6-1 3-4-1-2-2 4-3z" fill="#B56049"/>
<path transform="translate(191,680)" d="m0 0 6 1 1 1v7l-6-2v-5z" fill="#E6CAC1"/>
<path transform="translate(237,554)" d="m0 0 3 3v8l-2 9h-1l-1-12z" fill="#93929C"/>
<path transform="translate(503,554)" d="m0 0 2 1v1l7 1-3 2-6-1-1 3-5-1v-3z" fill="#5B3B3E"/>
<path transform="translate(634,845)" d="m0 0 2 3 3 13v3h-2l-3-9-1-5z" fill="#874A42"/>
<path transform="translate(245,793)" d="m0 0 3 1-9 10-1 2-3-1 2-5z" fill="#EFE2DC"/>
<path transform="translate(560,733)" d="m0 0h1l3 14-1 8-2-4-1-4z" fill="#935245"/>
<path transform="translate(549,544)" d="m0 0h4l-1 4-1 1-8 1v-2h-6v-1l10-2z" fill="#CC8566"/>
<path transform="translate(272,119)" d="m0 0 4 1-8 8h-2l-1 3h-2l2-5z" fill="#F7C079"/>
<path transform="translate(392,1280)" d="m0 0 5 1 14 5 1 2-12-3-10-3z" fill="#76463E"/>
<path transform="translate(350,1266)" d="m0 0 12 1 7 3v1h-10l-9-3z" fill="#F8BC70"/>
<path transform="translate(202,811)" d="m0 0h1v11l3 1-1 6 2 1 1 5-3-3v-2l-3 1 1-8-2-1z" fill="#874A43"/>
<path transform="translate(492,537)" d="m0 0 3 1 3 7h-6l-2-3 1-4z" fill="#412A2A"/>
<path transform="translate(295,256)" d="m0 0 2 1-4 4v7h-2v1l-1 3-2-5 1-5 4-5z" fill="#D07952"/>
<path transform="translate(773,1340)" d="m0 0 1 3-7 8-2 4 1-9z" fill="#AD6F5F"/>
<path transform="translate(223,910)" d="m0 0 3 3 1 6h-3l-2 5h-2l2-11z" fill="#9B5347"/>
<path transform="translate(418,682)" d="m0 0h1v9l4-1 1 7h-3l-3-3-2-1z" fill="#F2B876"/>
<path transform="translate(354,606)" d="m0 0h1v7l-9 9h-2v-4l9-6v-5z" fill="#5E3C3E"/>
<path transform="translate(260,586)" d="m0 0v3l-1 4-5 7-1-3 3-9z" fill="#674143"/>
<path transform="translate(315,323)" d="m0 0 8 1 3 8-1 3-8-10z" fill="#C3846A"/>
<path transform="translate(294,1187)" d="m0 0h1v12h3l-1 4-2 3-3-1 1-4z" fill="#6F4744"/>
<path transform="translate(264,976)" d="m0 0 1 2-9 14-3 3 1-7 4-4 1-3z" fill="#A95545"/>
<path transform="translate(186,827)" d="m0 0h5v2l-6 3-11 2v-3l3-1 7 1z" fill="#A65745"/>
<path transform="translate(479,718)" d="m0 0 2 3-2 2h-12v-2z" fill="#65464A"/>
<path transform="translate(529,544)" d="m0 0 4 2 1 6-2 1-5-3 1-5z" fill="#F1C194"/>
<path transform="translate(540,537)" d="m0 0 4 2-1 3-2 1h-6l1-4z" fill="#C7886E"/>
<path transform="translate(169,1308)" d="m0 0 5 1 4 4-1 2-12-4z" fill="#BB7E6A"/>
<path transform="translate(98,928)" d="m0 0 2 1 3 11v7l-2-2-1-8-2 1z" fill="#F1DED6"/>
<path transform="translate(570,725)" d="m0 0h1l1 11h3l-1 3-5-2v-11z" fill="#BC6C4C"/>
<path transform="translate(266,720)" d="m0 0 2 1-5 4-8 6-5 5-2-1 9-9z" fill="#BE9693"/>
<path transform="translate(196,635)" d="m0 0h3l-1 3-7 5-4-1 5-5z" fill="#D2D7DB"/>
<path transform="translate(285,624)" d="m0 0h6l-1 4-2 2-5-1 1-4z" fill="#F4F2F0"/>
<path transform="translate(542,597)" d="m0 0 6 4 3 4v2l-5-2-5-4z" fill="#F0D7CC"/>
<path transform="translate(513,562)" d="m0 0h6l2 1-2 6-6-3z" fill="#E1B7A2"/>
<path transform="translate(520,532)" d="m0 0h4v6h-2v2h-4l1-6z" fill="#C37C5F"/>
<path transform="translate(116,981)" d="m0 0 3 1 5 5 2 1v3h2l-1 3-12-11z" fill="#965146"/>
<path transform="translate(177,973)" d="m0 0 2 1-1 2-6 3-3 2h-6l3-3 10-4z" fill="#A15344"/>
<path transform="translate(616,767)" d="m0 0h5l-1 2-7 3h-6l-1-3z" fill="#A15344"/>
<path transform="translate(544,564)" d="m0 0 4 2 3 1 1 5-4-1-1 2-2-5-3-3z" fill="#F2C5A4"/>
<path transform="translate(534,552)" d="m0 0h2l4 7-1 3-3-2v-2l-3 1-1-5z" fill="#E3B696"/>
<path transform="translate(519,548)" d="m0 0h5l1 2-5 3-3 3h-2v-5z" fill="#DDAB8F"/>
<path transform="translate(527,541)" d="m0 0h2l1 3-3 5-7-1 5-5z" fill="#F6BE7F"/>
<path transform="translate(675,1226)" d="m0 0 11 2 3 1v3l-17-4z" fill="#834B41"/>
<path transform="translate(215 1e3)" d="m0 0h1v7l-3 13h-1v-9l2-10z" fill="#9C5144"/>
<path transform="translate(223,680)" d="m0 0 2 1-14 14-2-1 7-8z" fill="#A79FA0"/>
<path transform="translate(113,608)" d="m0 0h2l4 13-2 2-4-10z" fill="#614A4F"/>
<path transform="translate(523,494)" d="m0 0 5 1-1 5h-5l-2-4z" fill="#7C6267"/>
<path transform="translate(306,306)" d="m0 0 5 1 14 3v1h-12l-5-2v-2z" fill="#C69387"/>
<path transform="translate(236,1025)" d="m0 0h1l1 10 1 1v12l-2-3-1-7z" fill="#F4C091"/>
<path transform="translate(176,970)" d="m0 0 3 1-7 4h-2v2l-4 2-4-1 6-2 1-3z" fill="#7C4641"/>
<path transform="translate(201,958)" d="m0 0 3 1-8 7-7 2 5-5z" fill="#9C5144"/>
<path transform="translate(263,957)" d="m0 0 5 2 6 4-1 5-5-5-5-4z" fill="#975349"/>
<path transform="translate(320,722)" d="m0 0h8l9 6-1 1h-5l-5-5-6-1z" fill="#856262"/>
<path transform="translate(655,704)" d="m0 0 1 2-5 9-4 3-1-2z" fill="#A75945"/>
<path transform="translate(282,692)" d="m0 0m-2 1h2l4 5-4 2h-4v-5z" fill="#E1C0B1"/>
<path transform="translate(351,616)" d="m0 0v3l-7 8-4 3-3-1 5-4h2l2-4z" fill="#462F2F"/>
<path transform="translate(329,521)" d="m0 0 10 2 2 3-4-1-13-1 1-2z" fill="#F2CEC0"/>
<path transform="translate(756,1340)" d="m0 0 1 3 5 2 2 6-7-6-7-3v-1h5z" fill="#A46B60"/>
<path transform="translate(264,1262)" d="m0 0 3 2-1 1-7 1h-10v-1l7-2z" fill="#E08F66"/>
<path transform="translate(331,1253)" d="m0 0h7v1l-6 1 2 1v2h-7l-5-1v-1z" fill="#D5A890"/>
<path transform="translate(462,1059)" d="m0 0h3l1 5-7 1v-3l-2-1z" fill="#BF775B"/>
<path transform="translate(460,1009)" d="m0 0 4 4-1 2-2-1 1 6-3 2-2-2 2-5z" fill="#B79494"/>
<path transform="translate(221,982)" d="m0 0 2 1 1 8-1 1-2 10h-1z" fill="#A55344"/>
<path transform="translate(235,818)" d="m0 0v3l-5 11-2 5-2-4 7-13z" fill="#946A65"/>
<path transform="translate(281,626)" d="m0 0h2l-1 4-5 5-2-1 2-6z" fill="#79595C"/>
<path transform="translate(555,559)" d="m0 0h5l-1 4-2 1h-6l2-4z" fill="#D38362"/>
<path transform="translate(539,549)" d="m0 0h4l2 4 5 1-3 2-2 3-3-3z" fill="#EAB488"/>
<path transform="translate(504,534)" d="m0 0 5 1-1 5-4 1-1-6z" fill="#D1805F"/>
<path transform="translate(312,241)" d="m0 0 2 1-7 7-8 7h-2l1-3 8-6 5-5z" fill="#C27656"/>
<path transform="translate(130,1354)" d="m0 0 4 2-1 3-7 1-1 3-1-4v-2h4z" fill="#F3C091"/>
<path transform="translate(107,944)" d="m0 0 10 3 3 2-4 1-7-2-2 1z" fill="#BF6F53"/>
<path transform="translate(686,685)" d="m0 0 3 4 2 5v4h-2l-5-11h2z" fill="#E5B17D"/>
<path transform="translate(501,575)" d="m0 0 5 1 8 4-1 4-9-6z" fill="#F5D6C8"/>
<path transform="translate(560,1246)" d="m0 0 8 1v1l-12 2v2l-4 2-2-2 7-4h3z" fill="#DA9068"/>
<path transform="translate(266,1226)" d="m0 0 3 1-8 6-5 1 4-5z" fill="#412A2C"/>
<path transform="translate(124,1216)" d="m0 0 2 1-10 11h-2l1-4z" fill="#998586"/>
<path transform="translate(195,1212)" d="m0 0 9 3 4 4-2 2-11-8z" fill="#DAAB91"/>
<path transform="translate(697,1041)" d="m0 0 1 2-3 12-3-1 1-7z" fill="#945041"/>
<path transform="translate(720,1030)" d="m0 0m-3 1h3l1 3-4 2h-5v-3z" fill="#F4E3DC"/>
<path transform="translate(128,994)" d="m0 0 5 1 9 7-1 2-13-9z" fill="#934E44"/>
<path transform="translate(214,939)" d="m0 0 1 3-1 4h-2v5l-6 2z" fill="#9A5044"/>
<path transform="translate(634,896)" d="m0 0 1 2-6 11h-3l2-4z" fill="#F3EAE5"/>
<path transform="translate(215,832)" d="m0 0 3 1 1 5-2 5h-2z" fill="#F3F2F1"/>
<path transform="translate(125,816)" d="m0 0h1v24l-4-3 1-2h1z" fill="#F6D7C9"/>
<path transform="translate(137,643)" d="m0 0 11 4-1 2-10-2-3-2z" fill="#806B73"/>
<path transform="translate(101,614)" d="m0 0h2l3 10-3 1-3-9z" fill="#9FA4AB"/>
<path transform="translate(299,282)" d="m0 0 5 5v2l4 3-6-1-4-5z" fill="#F2C09B"/>
<path transform="translate(60,1340)" d="m0 0 8 1 7 5-3 1-12-6z" fill="#D7AC96"/>
<path transform="translate(365,963)" d="m0 0 9 3-1 4-6-2z" fill="#826162"/>
<path transform="translate(421,897)" d="m0 0m-1 1m-1 1m-2 1h2l-1 3-7 3h-5l1-2z" fill="#F6F9F9"/>
<path transform="translate(622,879)" d="m0 0h3v2l2 1-2 5h-3v-1l-3 1 1-4 3-1 1-2z" fill="#A85444"/>
<path transform="translate(487,726)" d="m0 0 5 1 2 3v3l-4-2h-3l-1-4z" fill="#7A514E"/>
<path transform="translate(486,668)" d="m0 0 2 1 7 3-1 2-3-1-4 1-3-4z" fill="#B25E48"/>
<path transform="translate(296,637)" d="m0 0 1 2-3 9-4 2 3-10z" fill="#462D2E"/>
<path transform="translate(586,600)" d="m0 0h9v1l-7 1-2 2h-7v-2z" fill="#E7B993"/>
<path transform="translate(297,529)" d="m0 0 5 1-2 2-4 1h-10l4-2z" fill="#E2B287"/>
<path transform="translate(311,526)" d="m0 0h5l-3 2-11 3-3-2 5-2z" fill="#F0C39E"/>
<path transform="translate(133,512)" d="m0 0h2l-3 6 1 3h-2v-2l-2-1-1 1-1-3 3-3z" fill="#866566"/>
<path transform="translate(177,1291)" d="m0 0 3 1 1 6-6 5-1-2 3-5z" fill="#B96E52"/>
<path transform="translate(482,1108)" d="m0 0 8 1h11 3v2h-16l-6-2z" fill="#F1BE90"/>
<path transform="translate(223,846)" d="m0 0 2 4-4 8h-2l2-9z" fill="#D4AB9D"/>
<path transform="translate(292,800)" d="m0 0 5 4 2 5h-3l-5-5z" fill="#956964"/>
<path transform="translate(524,553)" d="m0 0h4v6l-7-1 2-4z" fill="#9D5749"/>
<path transform="translate(89,336)" d="m0 0 5 3 1 3h2v2l3 1 1 3-4-2-8-8z" fill="#AF9092"/>
<path transform="translate(428,169)" d="m0 0h1l1 5v14l-2 4v-16l-1-5z" fill="#E7C0AF"/>
<path transform="translate(92,922)" d="m0 0h1v16l-2-1-1-11z" fill="#B09B9B"/>
<path transform="translate(555,543)" d="m0 0h2v7l-2 1-3-2 1-5z" fill="#482D2B"/>
<path transform="translate(175,478)" d="m0 0h6v1l11 1v1h-18z" fill="#CEC0C1"/>
<path transform="translate(324,338)" d="m0 0 3 2v2h2v2l-6 1-1-3z" fill="#F8D4C3"/>
<path transform="translate(132,1275)" d="m0 0h2l-1 9h-3v-7z" fill="#3A2626"/>
<path transform="translate(527,1066)" d="m0 0h2l-2 4-3 3-6 4 2-4z" fill="#492F31"/>
<path transform="translate(532,1062)" d="m0 0v3l-3 2-5 1-1-3z" fill="#B4694F"/>
<path transform="translate(349,948)" d="m0 0 3 1 6 8-2 2-6-8z" fill="#735456"/>
<path transform="translate(422,893)" d="m0 0 2 1-9 6-7 1 4-3z" fill="#F6F9F9"/>
<path transform="translate(617,770)" d="m0 0 2 1-1 5h-2l-1 7h-2v-6l2-3h2z" fill="#A45344"/>
<path transform="translate(301,725)" d="m0 0 3 1-5 7-5 2 2-4z" fill="#472F31"/>
<path transform="translate(286,689)" d="m0 0 2 1-1 4v3l-4-1-1-3z" fill="#F1CEBF"/>
<path transform="translate(562,681)" d="m0 0h1v8l2 1-1 3h-2v6h-1v-11z" fill="#A85B46"/>
<path transform="translate(436,656)" d="m0 0h6l-5 5h-3v-4z" fill="#7E4A43"/>
<path transform="translate(555,604)" d="m0 0h11v1h-7v4h3v2l-5-2z" fill="#BA735D"/>
<path transform="translate(139,520)" d="m0 0 1 2-2 4h-2l-1 4-3-1 3-5z" fill="#4A3E44"/>
<path transform="translate(517,478)" d="m0 0h14l-4 3-2 1-8-3z" fill="#644B5A"/>
<path transform="translate(337,349)" d="m0 0 2 3v4l-5 4-1 2h-3l2-4 4-3z" fill="#B78C84"/>
<path transform="translate(379,1276)" d="m0 0 11 3 2 2-9-1-4-2z" fill="#4A2F30"/>
<path transform="translate(193,1209)" d="m0 0 5 1 8 5-2 1-10-5z" fill="#593533"/>
<path transform="translate(455,1052)" d="m0 0h4l-2 4-3 1h-9v-1h8z" fill="#EFE8E5"/>
<path transform="translate(561,964)" d="m0 0 3 1-8 4-5 1-1-2z" fill="#844B41"/>
<path transform="translate(247,736)" d="m0 0v3l-4 5-2 2-1-4z" fill="#C59C94"/>
<path transform="translate(358,717)" d="m0 0 1 4-5 6-3-2z" fill="#B9918D"/>
<path transform="translate(136,701)" d="m0 0 2 1-11 11v-3l5-6z" fill="#786A71"/>
<path transform="translate(681,677)" d="m0 0 4 5 1 5-3-1-3-5z" fill="#EDB97D"/>
<path transform="translate(291,624)" d="m0 0 4 1 1 7-1 6h-1v-10h-3z" fill="#684A4F"/>
<path transform="translate(536,576)" d="m0 0 6 1 5-1 1 2-6 2-5-1z" fill="#EFC9B7"/>
<path transform="translate(112,528)" d="m0 0h2l-1 6-2 3h-2l-1 2 1-5z" fill="#9DA3AB"/>
<path transform="translate(213,1226)" d="m0 0h5v2l2 2-2 1-2 4z" fill="#BA7661"/>
<path transform="translate(256,1210)" d="m0 0 3 3h-2l-2 4-5 5-2-1 7-8z" fill="#E3B590"/>
<path transform="translate(714,1037)" d="m0 0 2 2-4 5-3-1 1-5z" fill="#C16C4D"/>
<path transform="translate(188,1023)" d="m0 0 12 3 2 1v2l-6-1-8-3z" fill="#9E5244"/>
<path transform="translate(434,743)" d="m0 0 2 2v15h-1l-2-9z" fill="#BC6F54"/>
<path transform="translate(253,656)" d="m0 0h4v5l-4 1-1-5z" fill="#392525"/>
<path transform="translate(434,507)" d="m0 0 3 1v6l-1 2-4 1 1-7 2 1 1-2h-2z" fill="#866465"/>
<path transform="translate(232,495)" d="m0 0 4 2v2l3 1v3l-3 1-4-7z" fill="#A0ABB4"/>
<path transform="translate(329,362)" d="m0 0 3 1-3 3-6 1-3-2h5v-2z" fill="#AAA5A8"/>
</svg>
